<?xml version="1.0"?>
<!DOCTYPE svg PUBLIC "-//W3C//DTD SVG 1.1//EN" "http://www.w3.org/Graphics/SVG/1.1/DTD/svg11.dtd">
<svg width="22.3515269487mm" height="22.3948532597mm" viewBox="0 0 22.3515269487 22.3948532597" xmlns="http://www.w3.org/2000/svg" version="1.1">
<g id="Pad006" transform="translate(11.132394,11.197427) scale(1,-1)">
<circle cx="0.0" cy="0.0" r="10.0" stroke="#191919" stroke-width="0.35 px" style="stroke-width:0.35;stroke-miterlimit:4;stroke-dasharray:none;fill:#cccccc"/>
<circle cx="0.0" cy="0.0" r="10.0" stroke="#191919" stroke-width="0.35 px" style="stroke-width:0.35;stroke-miterlimit:4;stroke-dasharray:none;fill:#cccccc"/>
<circle cx="0.0" cy="0.0" r="10.0" stroke="#191919" stroke-width="0.35 px" style="stroke-width:0.35;stroke-miterlimit:4;stroke-dasharray:none;fill:#cccccc"/>
<circle cx="0.0" cy="0.0" r="5.0" stroke="#191919" stroke-width="0.35 px" style="stroke-width:0.35;stroke-miterlimit:4;stroke-dasharray:none;fill:#cccccc"/>
<path id="Pad006_f0004"  d="M 1.5 -5.80947501931 A 6.0 6.0 0 0 1 6.0 0.0 L 6.0 0.0 A 6.0 6.0 0 0 0 1.5 -5.80947501931 L 1.5 -5.80947501931 Z " stroke="#191919" stroke-width="0.35 px" style="stroke-width:0.35;stroke-miterlimit:4;stroke-dasharray:none;fill:#cccccc;fill-rule: evenodd "/>
<path id="Pad006_f0005"  d="M 1.5 -5.80947501931 L 1.5 -5.80947501931 L 1.5 -7.0 L 1.5 -7.0 L 1.5 -5.80947501931 Z " stroke="#191919" stroke-width="0.35 px" style="stroke-width:0.35;stroke-miterlimit:4;stroke-dasharray:none;fill:#cccccc;fill-rule: evenodd "/>
<path id="Pad006_f0006"  d="M 1.5 -7.0 L 1.5 -7.0 L -1.5 -7.0 L -1.5 -7.0 L 1.5 -7.0 Z " stroke="#191919" stroke-width="0.35 px" style="stroke-width:0.35;stroke-miterlimit:4;stroke-dasharray:none;fill:#cccccc;fill-rule: evenodd "/>
<path id="Pad006_f0007"  d="M -1.5 -5.80947501931 L -1.5 -5.80947501931 L -1.5 -7.0 L -1.5 -7.0 L -1.5 -5.80947501931 Z " stroke="#191919" stroke-width="0.35 px" style="stroke-width:0.35;stroke-miterlimit:4;stroke-dasharray:none;fill:#cccccc;fill-rule: evenodd "/>
<path id="Pad006_f0008"  d="M -1.5 -5.80947501931 L -1.5 -5.80947501931 A 6.0 6.0 0 1 0 6.0 1.46957615898e-15 L 6.0 0.0 A 6.0 6.0 0 1 1 -1.5 -5.80947501931 Z " stroke="#191919" stroke-width="0.35 px" style="stroke-width:0.35;stroke-miterlimit:4;stroke-dasharray:none;fill:#cccccc;fill-rule: evenodd "/>
<path id="Pad006_f0009"  d="M 0.9 -4.91833305094 L 0.9 -4.91833305094 A 5.0 5.0 0 0 1 5.0 0.0 L 5.0 0.0 A 5.0 5.0 0 0 0 0.9 -4.91833305094 Z " stroke="#191919" stroke-width="0.35 px" style="stroke-width:0.35;stroke-miterlimit:4;stroke-dasharray:none;fill:#cccccc;fill-rule: evenodd "/>
<path id="Pad006_f0010"  d="M -0.9 -4.91833305094 L -0.9 -3.1 L 0.9 -3.1 L 0.9 -4.91833305094 A 5.0 5.0 0 0 0 -0.9 -4.91833305094 Z " stroke="#191919" stroke-width="0.35 px" style="stroke-width:0.35;stroke-miterlimit:4;stroke-dasharray:none;fill:#cccccc;fill-rule: evenodd "/>
<path id="Pad006_f0011"  d="M -0.9 -4.91833305094 A 5.0 5.0 0 0 0 -0.9 4.91833305094 L -0.9 4.91833305094 A 5.0 5.0 0 0 1 -0.9 -4.91833305094 L -0.9 -4.91833305094 Z " stroke="#191919" stroke-width="0.35 px" style="stroke-width:0.35;stroke-miterlimit:4;stroke-dasharray:none;fill:#cccccc;fill-rule: evenodd "/>
<path id="Pad006_f0012"  d="M -0.9 3.1 L -0.9 4.91833305094 A 5.0 5.0 0 0 0 0.9 4.91833305094 L 0.9 3.1 L -0.9 3.1 Z " stroke="#191919" stroke-width="0.35 px" style="stroke-width:0.35;stroke-miterlimit:4;stroke-dasharray:none;fill:#cccccc;fill-rule: evenodd "/>
<path id="Pad006_f0013"  d="M 0.9 4.91833305094 A 5.0 5.0 0 0 0 5.0 1.22464679915e-15 L 5.0 0.0 A 5.0 5.0 0 0 1 0.9 4.91833305094 L 0.9 4.91833305094 Z " stroke="#191919" stroke-width="0.35 px" style="stroke-width:0.35;stroke-miterlimit:4;stroke-dasharray:none;fill:#cccccc;fill-rule: evenodd "/>
<path id="Pad006_f0014"  d="M 1.5 -5.80947501931 A 6.0 6.0 0 0 1 6.0 0.0 A 6.0 6.0 0 1 1 -1.5 -5.80947501931 L -1.5 -5.5 L 1.5 -5.5 L 1.5 -5.80947501931 Z M -0.9 4.91833305094 L -0.9 5.1 L 0.9 5.1 L 0.9 4.91833305094 A 5.0 5.0 0 0 0 5.0 1.22464679915e-15 A 5.0 5.0 0 0 0 0.9 -4.91833305094 L 0.9 -5.1 L -0.9 -5.1 L -0.9 -4.91833305094 A 5.0 5.0 0 0 0 -0.9 4.91833305094 Z " stroke="#191919" stroke-width="0.35 px" style="stroke-width:0.35;stroke-miterlimit:4;stroke-dasharray:none;fill:#cccccc;fill-rule: evenodd "/>
<path id="Pad006_f0015"  d="M -1.5 -5.80947501931 L -1.5 -7.0 L 1.5 -7.0 L 1.5 -5.80947501931 A 6.0 6.0 0 0 0 -1.5 -5.80947501931 Z " stroke="#191919" stroke-width="0.35 px" style="stroke-width:0.35;stroke-miterlimit:4;stroke-dasharray:none;fill:#cccccc;fill-rule: evenodd "/>
<path id="Pad006_f0016"  d="M 0.9 -4.91833305094 L 0.9 -4.91833305094 L 0.9 -3.1 L 0.9 -3.1 L 0.9 -4.91833305094 Z " stroke="#191919" stroke-width="0.35 px" style="stroke-width:0.35;stroke-miterlimit:4;stroke-dasharray:none;fill:#cccccc;fill-rule: evenodd "/>
<path id="Pad006_f0017"  d="M 0.9 -3.1 L -0.9 -3.1 L -0.9 -3.1 L 0.9 -3.1 L 0.9 -3.1 Z " stroke="#191919" stroke-width="0.35 px" style="stroke-width:0.35;stroke-miterlimit:4;stroke-dasharray:none;fill:#cccccc;fill-rule: evenodd "/>
<path id="Pad006_f0018"  d="M -0.9 -3.1 L -0.9 -3.1 L -0.9 -4.91833305094 L -0.9 -4.91833305094 L -0.9 -3.1 Z " stroke="#191919" stroke-width="0.35 px" style="stroke-width:0.35;stroke-miterlimit:4;stroke-dasharray:none;fill:#cccccc;fill-rule: evenodd "/>
<path id="Pad006_f0019"  d="M -0.9 4.91833305094 L -0.9 4.91833305094 L -0.9 3.1 L -0.9 3.1 L -0.9 4.91833305094 Z " stroke="#191919" stroke-width="0.35 px" style="stroke-width:0.35;stroke-miterlimit:4;stroke-dasharray:none;fill:#cccccc;fill-rule: evenodd "/>
<path id="Pad006_f0020"  d="M 0.9 3.1 L 0.9 3.1 L 0.9 4.91833305094 L 0.9 4.91833305094 L 0.9 3.1 Z " stroke="#191919" stroke-width="0.35 px" style="stroke-width:0.35;stroke-miterlimit:4;stroke-dasharray:none;fill:#cccccc;fill-rule: evenodd "/>
<path id="Pad006_f0021"  d="M -0.9 3.1 L 0.9 3.1 L 0.9 3.1 L -0.9 3.1 L -0.9 3.1 Z " stroke="#191919" stroke-width="0.35 px" style="stroke-width:0.35;stroke-miterlimit:4;stroke-dasharray:none;fill:#cccccc;fill-rule: evenodd "/>
<path id="Pad006_f0022"  d="M -1.5 -5.5 L -1.5 -5.80947501931 A 6.0 6.0 0 0 1 1.5 -5.80947501931 L 1.5 -5.5 L -1.5 -5.5 Z " stroke="#191919" stroke-width="0.35 px" style="stroke-width:0.35;stroke-miterlimit:4;stroke-dasharray:none;fill:#cccccc;fill-rule: evenodd "/>
<path id="Pad006_f0023"  d="M -0.9 -5.1 L -0.9 -4.91833305094 A 5.0 5.0 0 0 1 0.9 -4.91833305094 L 0.9 -5.1 L -0.9 -5.1 Z " stroke="#191919" stroke-width="0.35 px" style="stroke-width:0.35;stroke-miterlimit:4;stroke-dasharray:none;fill:#cccccc;fill-rule: evenodd "/>
<path id="Pad006_f0024"  d="M -0.9 5.1 L 0.9 5.1 L 0.9 4.91833305094 A 5.0 5.0 0 0 1 -0.9 4.91833305094 L -0.9 5.1 Z " stroke="#191919" stroke-width="0.35 px" style="stroke-width:0.35;stroke-miterlimit:4;stroke-dasharray:none;fill:#cccccc;fill-rule: evenodd "/>
<path id="Pad006_f0025"  d="M 0.9 -4.91833305094 A 5.0 5.0 0 0 0 -0.9 -4.91833305094 L -0.9 -3.1 L 0.9 -3.1 L 0.9 -4.91833305094 Z " stroke="#191919" stroke-width="0.35 px" style="stroke-width:0.35;stroke-miterlimit:4;stroke-dasharray:none;fill:#cccccc;fill-rule: evenodd "/>
<path id="Pad006_f0026"  d="M 0.9 4.91833305094 A 5.0 5.0 0 0 1 -0.9 4.91833305094 L -0.9 3.1 L 0.9 3.1 L 0.9 4.91833305094 Z " stroke="#191919" stroke-width="0.35 px" style="stroke-width:0.35;stroke-miterlimit:4;stroke-dasharray:none;fill:#cccccc;fill-rule: evenodd "/>
<title>Pad006</title>
</g>
<g id="Pocket002" transform="translate(11.132394,11.197427) scale(1,-1)">
<path id="Pocket002_f0000"  d="M 1.0 -4.69467783772 A 4.8 4.8 0 0 1 4.8 0.0 A 4.8 4.8 0 0 1 1.0 4.69467783772 L 1.0 3.0 L -1.0 3.0 L -1.0 4.69467783772 A 4.8 4.8 0 0 1 -1.0 -4.69467783772 L -1.0 -3.0 L 1.0 -3.0 L 1.0 -4.69467783772 Z " stroke="#191919" stroke-width="0.35 px" style="stroke-width:0.35;stroke-miterlimit:4;stroke-dasharray:none;fill:#cccccc;fill-rule: evenodd "/>
<path id="Pocket002_f0001"  d="M 1.0 4.69467783772 A 4.8 4.8 0 0 0 4.8 1.17566092718e-15 L 4.8 0.0 A 4.8 4.8 0 0 1 1.0 4.69467783772 L 1.0 4.69467783772 Z " stroke="#191919" stroke-width="0.35 px" style="stroke-width:0.35;stroke-miterlimit:4;stroke-dasharray:none;fill:#cccccc;fill-rule: evenodd "/>
<path id="Pocket002_f0002"  d="M 1.0 3.0 L 1.0 4.69467783772 L 1.0 4.69467783772 L 1.0 3.0 L 1.0 3.0 Z " stroke="#191919" stroke-width="0.35 px" style="stroke-width:0.35;stroke-miterlimit:4;stroke-dasharray:none;fill:#cccccc;fill-rule: evenodd "/>
<path id="Pocket002_f0003"  d="M -1.0 3.0 L 1.0 3.0 L 1.0 3.0 L -1.0 3.0 L -1.0 3.0 Z " stroke="#191919" stroke-width="0.35 px" style="stroke-width:0.35;stroke-miterlimit:4;stroke-dasharray:none;fill:#cccccc;fill-rule: evenodd "/>
<path id="Pocket002_f0004"  d="M -1.0 4.69467783772 L -1.0 3.0 L -1.0 3.0 L -1.0 4.69467783772 L -1.0 4.69467783772 Z " stroke="#191919" stroke-width="0.35 px" style="stroke-width:0.35;stroke-miterlimit:4;stroke-dasharray:none;fill:#cccccc;fill-rule: evenodd "/>
<path id="Pocket002_f0005"  d="M -1.0 4.69467783772 L -1.0 4.69467783772 A 4.8 4.8 0 0 1 -1.0 -4.69467783772 L -1.0 -4.69467783772 A 4.8 4.8 0 0 0 -1.0 4.69467783772 Z " stroke="#191919" stroke-width="0.35 px" style="stroke-width:0.35;stroke-miterlimit:4;stroke-dasharray:none;fill:#cccccc;fill-rule: evenodd "/>
<path id="Pocket002_f0006"  d="M -1.0 -4.69467783772 L -1.0 -3.0 L -1.0 -3.0 L -1.0 -4.69467783772 L -1.0 -4.69467783772 Z " stroke="#191919" stroke-width="0.35 px" style="stroke-width:0.35;stroke-miterlimit:4;stroke-dasharray:none;fill:#cccccc;fill-rule: evenodd "/>
<path id="Pocket002_f0007"  d="M -1.0 -3.0 L 1.0 -3.0 L 1.0 -3.0 L -1.0 -3.0 L -1.0 -3.0 Z " stroke="#191919" stroke-width="0.35 px" style="stroke-width:0.35;stroke-miterlimit:4;stroke-dasharray:none;fill:#cccccc;fill-rule: evenodd "/>
<path id="Pocket002_f0008"  d="M 1.0 -3.0 L 1.0 -4.69467783772 L 1.0 -4.69467783772 L 1.0 -3.0 L 1.0 -3.0 Z " stroke="#191919" stroke-width="0.35 px" style="stroke-width:0.35;stroke-miterlimit:4;stroke-dasharray:none;fill:#cccccc;fill-rule: evenodd "/>
<path id="Pocket002_f0009"  d="M 1.0 -4.69467783772 L 1.0 -4.69467783772 A 4.8 4.8 0 0 1 4.8 0.0 L 4.8 0.0 A 4.8 4.8 0 0 0 1.0 -4.69467783772 Z " stroke="#191919" stroke-width="0.35 px" style="stroke-width:0.35;stroke-miterlimit:4;stroke-dasharray:none;fill:#cccccc;fill-rule: evenodd "/>
<circle cx="0.0" cy="0.0" r="6.5" stroke="#191919" stroke-width="0.35 px" style="stroke-width:0.35;stroke-miterlimit:4;stroke-dasharray:none;fill:#cccccc"/>
<circle cx="0.0" cy="0.0" r="6.5" stroke="#191919" stroke-width="0.35 px" style="stroke-width:0.35;stroke-miterlimit:4;stroke-dasharray:none;fill:#cccccc"/>
<circle cx="0.0" cy="0.0" r="11.0" stroke="#191919" stroke-width="0.35 px" style="stroke-width:0.35;stroke-miterlimit:4;stroke-dasharray:none;fill:#cccccc"/>
<circle cx="0.0" cy="0.0" r="11.0" stroke="#191919" stroke-width="0.35 px" style="stroke-width:0.35;stroke-miterlimit:4;stroke-dasharray:none;fill:#cccccc"/>
<circle cx="-5.65685424949" cy="5.65685424949" r="1.0" stroke="#191919" stroke-width="0.35 px" style="stroke-width:0.35;stroke-miterlimit:4;stroke-dasharray:none;fill:#cccccc"/>
<circle cx="5.65685424949" cy="-5.65685424949" r="1.0" stroke="#191919" stroke-width="0.35 px" style="stroke-width:0.35;stroke-miterlimit:4;stroke-dasharray:none;fill:#cccccc"/>
<circle cx="-5.6568542495" cy="-5.65685424949" r="1.0" stroke="#191919" stroke-width="0.35 px" style="stroke-width:0.35;stroke-miterlimit:4;stroke-dasharray:none;fill:#cccccc"/>
<circle cx="8.0" cy="0.0" r="1.0" stroke="#191919" stroke-width="0.35 px" style="stroke-width:0.35;stroke-miterlimit:4;stroke-dasharray:none;fill:#cccccc"/>
<circle cx="5.6568542495" cy="5.65685424949" r="1.0" stroke="#191919" stroke-width="0.35 px" style="stroke-width:0.35;stroke-miterlimit:4;stroke-dasharray:none;fill:#cccccc"/>
<circle cx="0.0" cy="-8.0" r="1.0" stroke="#191919" stroke-width="0.35 px" style="stroke-width:0.35;stroke-miterlimit:4;stroke-dasharray:none;fill:#cccccc"/>
<circle cx="-8.0" cy="0.0" r="1.0" stroke="#191919" stroke-width="0.35 px" style="stroke-width:0.35;stroke-miterlimit:4;stroke-dasharray:none;fill:#cccccc"/>
<circle cx="0.0" cy="8.0" r="1.0" stroke="#191919" stroke-width="0.35 px" style="stroke-width:0.35;stroke-miterlimit:4;stroke-dasharray:none;fill:#cccccc"/>
<circle cx="0.0" cy="0.0" r="11.0" stroke="#191919" stroke-width="0.35 px" style="stroke-width:0.35;stroke-miterlimit:4;stroke-dasharray:none;fill:#cccccc"/>
<circle cx="0.0" cy="0.0" r="5.0" stroke="#191919" stroke-width="0.35 px" style="stroke-width:0.35;stroke-miterlimit:4;stroke-dasharray:none;fill:#cccccc"/>
<circle cx="0.0" cy="0.0" r="5.0" stroke="#191919" stroke-width="0.35 px" style="stroke-width:0.35;stroke-miterlimit:4;stroke-dasharray:none;fill:#cccccc"/>
<title>Pocket002</title>
</g>
</svg>