  0
SECTION
  2
HEADER
  9
$ACADVER
  1
AC1009
  9
$EXTMIN
 10
0.0
 20
0.0
 30
0.0
  9
$EXTMAX
 10
1000.0
 20
1000.0
 30
0.0
  9
$FILLMODE
 70
 0
  9
$SPLFRAME
 70
 1
  0
ENDSEC
  0
SECTION
  2
TABLES
  0
TABLE
  2
LAYER
 70
1
  0
LAYER
  2
0
 70
     0
 62
     7
  6
CONTINUOUS
  0
ENDTAB
  0
ENDSEC
  0
SECTION
  2
ENTITIES
  0
POLYLINE
  8
0
 62
     254
 66
     1
 10
0
 20
0
 30
0.0
 70
     1
 40
0
 41
0
  0
VERTEX
  8
0
 10
18.2711
 20
21.6151
 30
0.0
 40
0
 41
0
  0
VERTEX
  8
0
 10
18.2649
 20
21.6458
 30
0.0
 40
0
 41
0
  0
VERTEX
  8
0
 10
18.2481
 20
21.6708
 30
0.0
 40
0
 41
0
  0
VERTEX
  8
0
 10
18.2229
 20
21.6878
 30
0.0
 40
0
 41
0
  0
VERTEX
  8
0
 10
18.1924
 20
21.6939
 30
0.0
 40
0
 41
0
  0
VERTEX
  8
0
 10
18.1617
 20
21.6878
 30
0.0
 40
0
 41
0
  0
VERTEX
  8
0
 10
18.1367
 20
21.6708
 30
0.0
 40
0
 41
0
  0
VERTEX
  8
0
 10
18.1197
 20
21.6458
 30
0.0
 40
0
 41
0
  0
VERTEX
  8
0
 10
18.1136
 20
21.6151
 30
0.0
 40
0
 41
0
  0
VERTEX
  8
0
 10
18.1197
 20
21.5846
 30
0.0
 40
0
 41
0
  0
VERTEX
  8
0
 10
18.1367
 20
21.5596
 30
0.0
 40
0
 41
0
  0
VERTEX
  8
0
 10
18.1617
 20
21.5426
 30
0.0
 40
0
 41
0
  0
VERTEX
  8
0
 10
18.1924
 20
21.5364
 30
0.0
 40
0
 41
0
  0
VERTEX
  8
0
 10
18.2229
 20
21.5426
 30
0.0
 40
0
 41
0
  0
VERTEX
  8
0
 10
18.2481
 20
21.5596
 30
0.0
 40
0
 41
0
  0
VERTEX
  8
0
 10
18.2649
 20
21.5846
 30
0.0
 40
0
 41
0
  0
VERTEX
  8
0
 10
18.2711
 20
21.6151
 30
0.0
 40
0
 41
0
  0
SEQEND
 8
0
  0
POLYLINE
  8
0
 62
     0
 66
     1
 10
0
 20
0
 30
0.0
 70
     1
 40
0.992126
 41
0.992126
  0
VERTEX
  8
0
 10
18.2711
 20
21.6151
 30
0.0
 40
0.0137795
 41
0.0137795
  0
VERTEX
  8
0
 10
18.2649
 20
21.6458
 30
0.0
 40
0.0137795
 41
0.0137795
  0
VERTEX
  8
0
 10
18.2481
 20
21.6708
 30
0.0
 40
0.0137795
 41
0.0137795
  0
VERTEX
  8
0
 10
18.2229
 20
21.6878
 30
0.0
 40
0.0137795
 41
0.0137795
  0
VERTEX
  8
0
 10
18.1924
 20
21.6939
 30
0.0
 40
0.0137795
 41
0.0137795
  0
VERTEX
  8
0
 10
18.1617
 20
21.6878
 30
0.0
 40
0.0137795
 41
0.0137795
  0
VERTEX
  8
0
 10
18.1367
 20
21.6708
 30
0.0
 40
0.0137795
 41
0.0137795
  0
VERTEX
  8
0
 10
18.1197
 20
21.6458
 30
0.0
 40
0.0137795
 41
0.0137795
  0
VERTEX
  8
0
 10
18.1136
 20
21.6151
 30
0.0
 40
0.0137795
 41
0.0137795
  0
VERTEX
  8
0
 10
18.1197
 20
21.5846
 30
0.0
 40
0.0137795
 41
0.0137795
  0
VERTEX
  8
0
 10
18.1367
 20
21.5596
 30
0.0
 40
0.0137795
 41
0.0137795
  0
VERTEX
  8
0
 10
18.1617
 20
21.5426
 30
0.0
 40
0.0137795
 41
0.0137795
  0
VERTEX
  8
0
 10
18.1924
 20
21.5364
 30
0.0
 40
0.0137795
 41
0.0137795
  0
VERTEX
  8
0
 10
18.2229
 20
21.5426
 30
0.0
 40
0.0137795
 41
0.0137795
  0
VERTEX
  8
0
 10
18.2481
 20
21.5596
 30
0.0
 40
0.0137795
 41
0.0137795
  0
VERTEX
  8
0
 10
18.2649
 20
21.5846
 30
0.0
 40
0.0137795
 41
0.0137795
  0
VERTEX
  8
0
 10
18.2711
 20
21.6151
 30
0.0
 40
0.0137795
 41
0.0137795
  0
SEQEND
 8
0
  0
POLYLINE
  8
0
 62
     254
 66
     1
 10
0
 20
0
 30
0.0
 70
     1
 40
0
 41
0
  0
VERTEX
  8
0
 10
18.8404
 20
4.15924
 30
0.0
 40
0
 41
0
  0
VERTEX
  8
0
 10
18.8343
 20
4.18989
 30
0.0
 40
0
 41
0
  0
VERTEX
  8
0
 10
18.8174
 20
4.2149
 30
0.0
 40
0
 41
0
  0
VERTEX
  8
0
 10
18.7924
 20
4.23178
 30
0.0
 40
0
 41
0
  0
VERTEX
  8
0
 10
18.7617
 20
4.23796
 30
0.0
 40
0
 41
0
  0
VERTEX
  8
0
 10
18.731
 20
4.23178
 30
0.0
 40
0
 41
0
  0
VERTEX
  8
0
 10
18.706
 20
4.2149
 30
0.0
 40
0
 41
0
  0
VERTEX
  8
0
 10
18.6892
 20
4.18989
 30
0.0
 40
0
 41
0
  0
VERTEX
  8
0
 10
18.6831
 20
4.15924
 30
0.0
 40
0
 41
0
  0
VERTEX
  8
0
 10
18.6892
 20
4.12858
 30
0.0
 40
0
 41
0
  0
VERTEX
  8
0
 10
18.706
 20
4.10357
 30
0.0
 40
0
 41
0
  0
VERTEX
  8
0
 10
18.731
 20
4.08669
 30
0.0
 40
0
 41
0
  0
VERTEX
  8
0
 10
18.7617
 20
4.08046
 30
0.0
 40
0
 41
0
  0
VERTEX
  8
0
 10
18.7924
 20
4.08669
 30
0.0
 40
0
 41
0
  0
VERTEX
  8
0
 10
18.8174
 20
4.10357
 30
0.0
 40
0
 41
0
  0
VERTEX
  8
0
 10
18.8343
 20
4.12858
 30
0.0
 40
0
 41
0
  0
VERTEX
  8
0
 10
18.8404
 20
4.15924
 30
0.0
 40
0
 41
0
  0
SEQEND
 8
0
  0
POLYLINE
  8
0
 62
     0
 66
     1
 10
0
 20
0
 30
0.0
 70
     1
 40
0.992126
 41
0.992126
  0
VERTEX
  8
0
 10
18.8404
 20
4.15924
 30
0.0
 40
0.0137795
 41
0.0137795
  0
VERTEX
  8
0
 10
18.8343
 20
4.18989
 30
0.0
 40
0.0137795
 41
0.0137795
  0
VERTEX
  8
0
 10
18.8174
 20
4.2149
 30
0.0
 40
0.0137795
 41
0.0137795
  0
VERTEX
  8
0
 10
18.7924
 20
4.23178
 30
0.0
 40
0.0137795
 41
0.0137795
  0
VERTEX
  8
0
 10
18.7617
 20
4.23796
 30
0.0
 40
0.0137795
 41
0.0137795
  0
VERTEX
  8
0
 10
18.731
 20
4.23178
 30
0.0
 40
0.0137795
 41
0.0137795
  0
VERTEX
  8
0
 10
18.706
 20
4.2149
 30
0.0
 40
0.0137795
 41
0.0137795
  0
VERTEX
  8
0
 10
18.6892
 20
4.18989
 30
0.0
 40
0.0137795
 41
0.0137795
  0
VERTEX
  8
0
 10
18.6831
 20
4.15924
 30
0.0
 40
0.0137795
 41
0.0137795
  0
VERTEX
  8
0
 10
18.6892
 20
4.12858
 30
0.0
 40
0.0137795
 41
0.0137795
  0
VERTEX
  8
0
 10
18.706
 20
4.10357
 30
0.0
 40
0.0137795
 41
0.0137795
  0
VERTEX
  8
0
 10
18.731
 20
4.08669
 30
0.0
 40
0.0137795
 41
0.0137795
  0
VERTEX
  8
0
 10
18.7617
 20
4.08046
 30
0.0
 40
0.0137795
 41
0.0137795
  0
VERTEX
  8
0
 10
18.7924
 20
4.08669
 30
0.0
 40
0.0137795
 41
0.0137795
  0
VERTEX
  8
0
 10
18.8174
 20
4.10357
 30
0.0
 40
0.0137795
 41
0.0137795
  0
VERTEX
  8
0
 10
18.8343
 20
4.12858
 30
0.0
 40
0.0137795
 41
0.0137795
  0
VERTEX
  8
0
 10
18.8404
 20
4.15924
 30
0.0
 40
0.0137795
 41
0.0137795
  0
SEQEND
 8
0
  0
POLYLINE
  8
0
 62
     254
 66
     1
 10
0
 20
0
 30
0.0
 70
     1
 40
0
 41
0
  0
VERTEX
  8
0
 10
20.56
 20
20.4707
 30
0.0
 40
0
 41
0
  0
VERTEX
  8
0
 10
20.5538
 20
20.5014
 30
0.0
 40
0
 41
0
  0
VERTEX
  8
0
 10
20.5369
 20
20.5264
 30
0.0
 40
0
 41
0
  0
VERTEX
  8
0
 10
20.5119
 20
20.5433
 30
0.0
 40
0
 41
0
  0
VERTEX
  8
0
 10
20.4813
 20
20.5494
 30
0.0
 40
0
 41
0
  0
VERTEX
  8
0
 10
20.4506
 20
20.5433
 30
0.0
 40
0
 41
0
  0
VERTEX
  8
0
 10
20.4256
 20
20.5264
 30
0.0
 40
0
 41
0
  0
VERTEX
  8
0
 10
20.4088
 20
20.5014
 30
0.0
 40
0
 41
0
  0
VERTEX
  8
0
 10
20.4025
 20
20.4707
 30
0.0
 40
0
 41
0
  0
VERTEX
  8
0
 10
20.4088
 20
20.4401
 30
0.0
 40
0
 41
0
  0
VERTEX
  8
0
 10
20.4256
 20
20.4151
 30
0.0
 40
0
 41
0
  0
VERTEX
  8
0
 10
20.4506
 20
20.3982
 30
0.0
 40
0
 41
0
  0
VERTEX
  8
0
 10
20.4813
 20
20.3919
 30
0.0
 40
0
 41
0
  0
VERTEX
  8
0
 10
20.5119
 20
20.3982
 30
0.0
 40
0
 41
0
  0
VERTEX
  8
0
 10
20.5369
 20
20.4151
 30
0.0
 40
0
 41
0
  0
VERTEX
  8
0
 10
20.5538
 20
20.4401
 30
0.0
 40
0
 41
0
  0
VERTEX
  8
0
 10
20.56
 20
20.4707
 30
0.0
 40
0
 41
0
  0
SEQEND
 8
0
  0
POLYLINE
  8
0
 62
     0
 66
     1
 10
0
 20
0
 30
0.0
 70
     1
 40
0.992126
 41
0.992126
  0
VERTEX
  8
0
 10
20.56
 20
20.4707
 30
0.0
 40
0.0137795
 41
0.0137795
  0
VERTEX
  8
0
 10
20.5538
 20
20.5014
 30
0.0
 40
0.0137795
 41
0.0137795
  0
VERTEX
  8
0
 10
20.5369
 20
20.5264
 30
0.0
 40
0.0137795
 41
0.0137795
  0
VERTEX
  8
0
 10
20.5119
 20
20.5433
 30
0.0
 40
0.0137795
 41
0.0137795
  0
VERTEX
  8
0
 10
20.4813
 20
20.5494
 30
0.0
 40
0.0137795
 41
0.0137795
  0
VERTEX
  8
0
 10
20.4506
 20
20.5433
 30
0.0
 40
0.0137795
 41
0.0137795
  0
VERTEX
  8
0
 10
20.4256
 20
20.5264
 30
0.0
 40
0.0137795
 41
0.0137795
  0
VERTEX
  8
0
 10
20.4088
 20
20.5014
 30
0.0
 40
0.0137795
 41
0.0137795
  0
VERTEX
  8
0
 10
20.4025
 20
20.4707
 30
0.0
 40
0.0137795
 41
0.0137795
  0
VERTEX
  8
0
 10
20.4088
 20
20.4401
 30
0.0
 40
0.0137795
 41
0.0137795
  0
VERTEX
  8
0
 10
20.4256
 20
20.4151
 30
0.0
 40
0.0137795
 41
0.0137795
  0
VERTEX
  8
0
 10
20.4506
 20
20.3982
 30
0.0
 40
0.0137795
 41
0.0137795
  0
VERTEX
  8
0
 10
20.4813
 20
20.3919
 30
0.0
 40
0.0137795
 41
0.0137795
  0
VERTEX
  8
0
 10
20.5119
 20
20.3982
 30
0.0
 40
0.0137795
 41
0.0137795
  0
VERTEX
  8
0
 10
20.5369
 20
20.4151
 30
0.0
 40
0.0137795
 41
0.0137795
  0
VERTEX
  8
0
 10
20.5538
 20
20.4401
 30
0.0
 40
0.0137795
 41
0.0137795
  0
VERTEX
  8
0
 10
20.56
 20
20.4707
 30
0.0
 40
0.0137795
 41
0.0137795
  0
SEQEND
 8
0
  0
POLYLINE
  8
0
 62
     254
 66
     1
 10
0
 20
0
 30
0.0
 70
     1
 40
0
 41
0
  0
VERTEX
  8
0
 10
19.4043
 20
18.1875
 30
0.0
 40
0
 41
0
  0
VERTEX
  8
0
 10
19.3981
 20
18.2182
 30
0.0
 40
0
 41
0
  0
VERTEX
  8
0
 10
19.3812
 20
18.2432
 30
0.0
 40
0
 41
0
  0
VERTEX
  8
0
 10
19.3561
 20
18.2601
 30
0.0
 40
0
 41
0
  0
VERTEX
  8
0
 10
19.3256
 20
18.2663
 30
0.0
 40
0
 41
0
  0
VERTEX
  8
0
 10
19.2949
 20
18.2601
 30
0.0
 40
0
 41
0
  0
VERTEX
  8
0
 10
19.2699
 20
18.2432
 30
0.0
 40
0
 41
0
  0
VERTEX
  8
0
 10
19.2529
 20
18.2182
 30
0.0
 40
0
 41
0
  0
VERTEX
  8
0
 10
19.2468
 20
18.1875
 30
0.0
 40
0
 41
0
  0
VERTEX
  8
0
 10
19.2529
 20
18.1569
 30
0.0
 40
0
 41
0
  0
VERTEX
  8
0
 10
19.2699
 20
18.1319
 30
0.0
 40
0
 41
0
  0
VERTEX
  8
0
 10
19.2949
 20
18.115
 30
0.0
 40
0
 41
0
  0
VERTEX
  8
0
 10
19.3256
 20
18.1087
 30
0.0
 40
0
 41
0
  0
VERTEX
  8
0
 10
19.3561
 20
18.115
 30
0.0
 40
0
 41
0
  0
VERTEX
  8
0
 10
19.3812
 20
18.1319
 30
0.0
 40
0
 41
0
  0
VERTEX
  8
0
 10
19.3981
 20
18.1569
 30
0.0
 40
0
 41
0
  0
VERTEX
  8
0
 10
19.4043
 20
18.1875
 30
0.0
 40
0
 41
0
  0
SEQEND
 8
0
  0
POLYLINE
  8
0
 62
     0
 66
     1
 10
0
 20
0
 30
0.0
 70
     1
 40
0.992126
 41
0.992126
  0
VERTEX
  8
0
 10
19.4043
 20
18.1875
 30
0.0
 40
0.0137795
 41
0.0137795
  0
VERTEX
  8
0
 10
19.3981
 20
18.2182
 30
0.0
 40
0.0137795
 41
0.0137795
  0
VERTEX
  8
0
 10
19.3812
 20
18.2432
 30
0.0
 40
0.0137795
 41
0.0137795
  0
VERTEX
  8
0
 10
19.3561
 20
18.2601
 30
0.0
 40
0.0137795
 41
0.0137795
  0
VERTEX
  8
0
 10
19.3256
 20
18.2663
 30
0.0
 40
0.0137795
 41
0.0137795
  0
VERTEX
  8
0
 10
19.2949
 20
18.2601
 30
0.0
 40
0.0137795
 41
0.0137795
  0
VERTEX
  8
0
 10
19.2699
 20
18.2432
 30
0.0
 40
0.0137795
 41
0.0137795
  0
VERTEX
  8
0
 10
19.2529
 20
18.2182
 30
0.0
 40
0.0137795
 41
0.0137795
  0
VERTEX
  8
0
 10
19.2468
 20
18.1875
 30
0.0
 40
0.0137795
 41
0.0137795
  0
VERTEX
  8
0
 10
19.2529
 20
18.1569
 30
0.0
 40
0.0137795
 41
0.0137795
  0
VERTEX
  8
0
 10
19.2699
 20
18.1319
 30
0.0
 40
0.0137795
 41
0.0137795
  0
VERTEX
  8
0
 10
19.2949
 20
18.115
 30
0.0
 40
0.0137795
 41
0.0137795
  0
VERTEX
  8
0
 10
19.3256
 20
18.1087
 30
0.0
 40
0.0137795
 41
0.0137795
  0
VERTEX
  8
0
 10
19.3561
 20
18.115
 30
0.0
 40
0.0137795
 41
0.0137795
  0
VERTEX
  8
0
 10
19.3812
 20
18.1319
 30
0.0
 40
0.0137795
 41
0.0137795
  0
VERTEX
  8
0
 10
19.3981
 20
18.1569
 30
0.0
 40
0.0137795
 41
0.0137795
  0
VERTEX
  8
0
 10
19.4043
 20
18.1875
 30
0.0
 40
0.0137795
 41
0.0137795
  0
SEQEND
 8
0
  0
POLYLINE
  8
0
 62
     254
 66
     1
 10
0
 20
0
 30
0.0
 70
     1
 40
0
 41
0
  0
VERTEX
  8
0
 10
18.2681
 20
2.44228
 30
0.0
 40
0
 41
0
  0
VERTEX
  8
0
 10
18.2619
 20
2.47299
 30
0.0
 40
0
 41
0
  0
VERTEX
  8
0
 10
18.245
 20
2.49799
 30
0.0
 40
0
 41
0
  0
VERTEX
  8
0
 10
18.22
 20
2.51486
 30
0.0
 40
0
 41
0
  0
VERTEX
  8
0
 10
18.1894
 20
2.52106
 30
0.0
 40
0
 41
0
  0
VERTEX
  8
0
 10
18.1588
 20
2.51486
 30
0.0
 40
0
 41
0
  0
VERTEX
  8
0
 10
18.1336
 20
2.49799
 30
0.0
 40
0
 41
0
  0
VERTEX
  8
0
 10
18.1168
 20
2.47299
 30
0.0
 40
0
 41
0
  0
VERTEX
  8
0
 10
18.1106
 20
2.44228
 30
0.0
 40
0
 41
0
  0
VERTEX
  8
0
 10
18.1168
 20
2.41168
 30
0.0
 40
0
 41
0
  0
VERTEX
  8
0
 10
18.1336
 20
2.38667
 30
0.0
 40
0
 41
0
  0
VERTEX
  8
0
 10
18.1588
 20
2.36979
 30
0.0
 40
0
 41
0
  0
VERTEX
  8
0
 10
18.1894
 20
2.36356
 30
0.0
 40
0
 41
0
  0
VERTEX
  8
0
 10
18.22
 20
2.36979
 30
0.0
 40
0
 41
0
  0
VERTEX
  8
0
 10
18.245
 20
2.38667
 30
0.0
 40
0
 41
0
  0
VERTEX
  8
0
 10
18.2619
 20
2.41168
 30
0.0
 40
0
 41
0
  0
VERTEX
  8
0
 10
18.2681
 20
2.44228
 30
0.0
 40
0
 41
0
  0
SEQEND
 8
0
  0
POLYLINE
  8
0
 62
     0
 66
     1
 10
0
 20
0
 30
0.0
 70
     1
 40
0.992126
 41
0.992126
  0
VERTEX
  8
0
 10
18.2681
 20
2.44228
 30
0.0
 40
0.0137795
 41
0.0137795
  0
VERTEX
  8
0
 10
18.2619
 20
2.47299
 30
0.0
 40
0.0137795
 41
0.0137795
  0
VERTEX
  8
0
 10
18.245
 20
2.49799
 30
0.0
 40
0.0137795
 41
0.0137795
  0
VERTEX
  8
0
 10
18.22
 20
2.51486
 30
0.0
 40
0.0137795
 41
0.0137795
  0
VERTEX
  8
0
 10
18.1894
 20
2.52106
 30
0.0
 40
0.0137795
 41
0.0137795
  0
VERTEX
  8
0
 10
18.1588
 20
2.51486
 30
0.0
 40
0.0137795
 41
0.0137795
  0
VERTEX
  8
0
 10
18.1336
 20
2.49799
 30
0.0
 40
0.0137795
 41
0.0137795
  0
VERTEX
  8
0
 10
18.1168
 20
2.47299
 30
0.0
 40
0.0137795
 41
0.0137795
  0
VERTEX
  8
0
 10
18.1106
 20
2.44228
 30
0.0
 40
0.0137795
 41
0.0137795
  0
VERTEX
  8
0
 10
18.1168
 20
2.41168
 30
0.0
 40
0.0137795
 41
0.0137795
  0
VERTEX
  8
0
 10
18.1336
 20
2.38667
 30
0.0
 40
0.0137795
 41
0.0137795
  0
VERTEX
  8
0
 10
18.1588
 20
2.36979
 30
0.0
 40
0.0137795
 41
0.0137795
  0
VERTEX
  8
0
 10
18.1894
 20
2.36356
 30
0.0
 40
0.0137795
 41
0.0137795
  0
VERTEX
  8
0
 10
18.22
 20
2.36979
 30
0.0
 40
0.0137795
 41
0.0137795
  0
VERTEX
  8
0
 10
18.245
 20
2.38667
 30
0.0
 40
0.0137795
 41
0.0137795
  0
VERTEX
  8
0
 10
18.2619
 20
2.41168
 30
0.0
 40
0.0137795
 41
0.0137795
  0
VERTEX
  8
0
 10
18.2681
 20
2.44228
 30
0.0
 40
0.0137795
 41
0.0137795
  0
SEQEND
 8
0
  0
POLYLINE
  8
0
 62
     254
 66
     1
 10
0
 20
0
 30
0.0
 70
     1
 40
0
 41
0
  0
VERTEX
  8
0
 10
19.4013
 20
5.86996
 30
0.0
 40
0
 41
0
  0
VERTEX
  8
0
 10
19.3951
 20
5.90061
 30
0.0
 40
0
 41
0
  0
VERTEX
  8
0
 10
19.3782
 20
5.92562
 30
0.0
 40
0
 41
0
  0
VERTEX
  8
0
 10
19.3532
 20
5.94249
 30
0.0
 40
0
 41
0
  0
VERTEX
  8
0
 10
19.3226
 20
5.94868
 30
0.0
 40
0
 41
0
  0
VERTEX
  8
0
 10
19.2919
 20
5.94249
 30
0.0
 40
0
 41
0
  0
VERTEX
  8
0
 10
19.2668
 20
5.92562
 30
0.0
 40
0
 41
0
  0
VERTEX
  8
0
 10
19.25
 20
5.90061
 30
0.0
 40
0
 41
0
  0
VERTEX
  8
0
 10
19.2438
 20
5.86996
 30
0.0
 40
0
 41
0
  0
VERTEX
  8
0
 10
19.25
 20
5.83931
 30
0.0
 40
0
 41
0
  0
VERTEX
  8
0
 10
19.2668
 20
5.81429
 30
0.0
 40
0
 41
0
  0
VERTEX
  8
0
 10
19.2919
 20
5.79742
 30
0.0
 40
0
 41
0
  0
VERTEX
  8
0
 10
19.3226
 20
5.79124
 30
0.0
 40
0
 41
0
  0
VERTEX
  8
0
 10
19.3532
 20
5.79742
 30
0.0
 40
0
 41
0
  0
VERTEX
  8
0
 10
19.3782
 20
5.81429
 30
0.0
 40
0
 41
0
  0
VERTEX
  8
0
 10
19.3951
 20
5.83931
 30
0.0
 40
0
 41
0
  0
VERTEX
  8
0
 10
19.4013
 20
5.86996
 30
0.0
 40
0
 41
0
  0
SEQEND
 8
0
  0
POLYLINE
  8
0
 62
     0
 66
     1
 10
0
 20
0
 30
0.0
 70
     1
 40
0.992126
 41
0.992126
  0
VERTEX
  8
0
 10
19.4013
 20
5.86996
 30
0.0
 40
0.0137795
 41
0.0137795
  0
VERTEX
  8
0
 10
19.3951
 20
5.90061
 30
0.0
 40
0.0137795
 41
0.0137795
  0
VERTEX
  8
0
 10
19.3782
 20
5.92562
 30
0.0
 40
0.0137795
 41
0.0137795
  0
VERTEX
  8
0
 10
19.3532
 20
5.94249
 30
0.0
 40
0.0137795
 41
0.0137795
  0
VERTEX
  8
0
 10
19.3226
 20
5.94868
 30
0.0
 40
0.0137795
 41
0.0137795
  0
VERTEX
  8
0
 10
19.2919
 20
5.94249
 30
0.0
 40
0.0137795
 41
0.0137795
  0
VERTEX
  8
0
 10
19.2668
 20
5.92562
 30
0.0
 40
0.0137795
 41
0.0137795
  0
VERTEX
  8
0
 10
19.25
 20
5.90061
 30
0.0
 40
0.0137795
 41
0.0137795
  0
VERTEX
  8
0
 10
19.2438
 20
5.86996
 30
0.0
 40
0.0137795
 41
0.0137795
  0
VERTEX
  8
0
 10
19.25
 20
5.83931
 30
0.0
 40
0.0137795
 41
0.0137795
  0
VERTEX
  8
0
 10
19.2668
 20
5.81429
 30
0.0
 40
0.0137795
 41
0.0137795
  0
VERTEX
  8
0
 10
19.2919
 20
5.79742
 30
0.0
 40
0.0137795
 41
0.0137795
  0
VERTEX
  8
0
 10
19.3226
 20
5.79124
 30
0.0
 40
0.0137795
 41
0.0137795
  0
VERTEX
  8
0
 10
19.3532
 20
5.79742
 30
0.0
 40
0.0137795
 41
0.0137795
  0
VERTEX
  8
0
 10
19.3782
 20
5.81429
 30
0.0
 40
0.0137795
 41
0.0137795
  0
VERTEX
  8
0
 10
19.3951
 20
5.83931
 30
0.0
 40
0.0137795
 41
0.0137795
  0
VERTEX
  8
0
 10
19.4013
 20
5.86996
 30
0.0
 40
0.0137795
 41
0.0137795
  0
SEQEND
 8
0
  0
POLYLINE
  8
0
 62
     254
 66
     1
 10
0
 20
0
 30
0.0
 70
     1
 40
0
 41
0
  0
VERTEX
  8
0
 10
4.37196
 20
13.3128
 30
0.0
 40
0
 41
0
  0
VERTEX
  8
0
 10
4.36572
 20
13.3434
 30
0.0
 40
0
 41
0
  0
VERTEX
  8
0
 10
4.34885
 20
13.3684
 30
0.0
 40
0
 41
0
  0
VERTEX
  8
0
 10
4.32383
 20
13.3853
 30
0.0
 40
0
 41
0
  0
VERTEX
  8
0
 10
4.29324
 20
13.3915
 30
0.0
 40
0
 41
0
  0
VERTEX
  8
0
 10
4.26253
 20
13.3853
 30
0.0
 40
0
 41
0
  0
VERTEX
  8
0
 10
4.23753
 20
13.3684
 30
0.0
 40
0
 41
0
  0
VERTEX
  8
0
 10
4.22065
 20
13.3434
 30
0.0
 40
0
 41
0
  0
VERTEX
  8
0
 10
4.21446
 20
13.3128
 30
0.0
 40
0
 41
0
  0
VERTEX
  8
0
 10
4.22065
 20
13.2821
 30
0.0
 40
0
 41
0
  0
VERTEX
  8
0
 10
4.23753
 20
13.2571
 30
0.0
 40
0
 41
0
  0
VERTEX
  8
0
 10
4.26253
 20
13.2402
 30
0.0
 40
0
 41
0
  0
VERTEX
  8
0
 10
4.29324
 20
13.234
 30
0.0
 40
0
 41
0
  0
VERTEX
  8
0
 10
4.32383
 20
13.2402
 30
0.0
 40
0
 41
0
  0
VERTEX
  8
0
 10
4.34885
 20
13.2571
 30
0.0
 40
0
 41
0
  0
VERTEX
  8
0
 10
4.36572
 20
13.2821
 30
0.0
 40
0
 41
0
  0
VERTEX
  8
0
 10
4.37196
 20
13.3128
 30
0.0
 40
0
 41
0
  0
SEQEND
 8
0
  0
POLYLINE
  8
0
 62
     0
 66
     1
 10
0
 20
0
 30
0.0
 70
     1
 40
0.992126
 41
0.992126
  0
VERTEX
  8
0
 10
4.37196
 20
13.3128
 30
0.0
 40
0.0137795
 41
0.0137795
  0
VERTEX
  8
0
 10
4.36572
 20
13.3434
 30
0.0
 40
0.0137795
 41
0.0137795
  0
VERTEX
  8
0
 10
4.34885
 20
13.3684
 30
0.0
 40
0.0137795
 41
0.0137795
  0
VERTEX
  8
0
 10
4.32383
 20
13.3853
 30
0.0
 40
0.0137795
 41
0.0137795
  0
VERTEX
  8
0
 10
4.29324
 20
13.3915
 30
0.0
 40
0.0137795
 41
0.0137795
  0
VERTEX
  8
0
 10
4.26253
 20
13.3853
 30
0.0
 40
0.0137795
 41
0.0137795
  0
VERTEX
  8
0
 10
4.23753
 20
13.3684
 30
0.0
 40
0.0137795
 41
0.0137795
  0
VERTEX
  8
0
 10
4.22065
 20
13.3434
 30
0.0
 40
0.0137795
 41
0.0137795
  0
VERTEX
  8
0
 10
4.21446
 20
13.3128
 30
0.0
 40
0.0137795
 41
0.0137795
  0
VERTEX
  8
0
 10
4.22065
 20
13.2821
 30
0.0
 40
0.0137795
 41
0.0137795
  0
VERTEX
  8
0
 10
4.23753
 20
13.2571
 30
0.0
 40
0.0137795
 41
0.0137795
  0
VERTEX
  8
0
 10
4.26253
 20
13.2402
 30
0.0
 40
0.0137795
 41
0.0137795
  0
VERTEX
  8
0
 10
4.29324
 20
13.234
 30
0.0
 40
0.0137795
 41
0.0137795
  0
VERTEX
  8
0
 10
4.32383
 20
13.2402
 30
0.0
 40
0.0137795
 41
0.0137795
  0
VERTEX
  8
0
 10
4.34885
 20
13.2571
 30
0.0
 40
0.0137795
 41
0.0137795
  0
VERTEX
  8
0
 10
4.36572
 20
13.2821
 30
0.0
 40
0.0137795
 41
0.0137795
  0
VERTEX
  8
0
 10
4.37196
 20
13.3128
 30
0.0
 40
0.0137795
 41
0.0137795
  0
SEQEND
 8
0
  0
POLYLINE
  8
0
 62
     254
 66
     1
 10
0
 20
0
 30
0.0
 70
     1
 40
0
 41
0
  0
VERTEX
  8
0
 10
1.81287
 20
10.7537
 30
0.0
 40
0
 41
0
  0
VERTEX
  8
0
 10
1.80669
 20
10.7844
 30
0.0
 40
0
 41
0
  0
VERTEX
  8
0
 10
1.78982
 20
10.8094
 30
0.0
 40
0
 41
0
  0
VERTEX
  8
0
 10
1.76481
 20
10.8263
 30
0.0
 40
0
 41
0
  0
VERTEX
  8
0
 10
1.73415
 20
10.8325
 30
0.0
 40
0
 41
0
  0
VERTEX
  8
0
 10
1.70344
 20
10.8263
 30
0.0
 40
0
 41
0
  0
VERTEX
  8
0
 10
1.67844
 20
10.8094
 30
0.0
 40
0
 41
0
  0
VERTEX
  8
0
 10
1.66157
 20
10.7844
 30
0.0
 40
0
 41
0
  0
VERTEX
  8
0
 10
1.65543
 20
10.7537
 30
0.0
 40
0
 41
0
  0
VERTEX
  8
0
 10
1.66157
 20
10.7231
 30
0.0
 40
0
 41
0
  0
VERTEX
  8
0
 10
1.67844
 20
10.6981
 30
0.0
 40
0
 41
0
  0
VERTEX
  8
0
 10
1.70344
 20
10.6812
 30
0.0
 40
0
 41
0
  0
VERTEX
  8
0
 10
1.73415
 20
10.675
 30
0.0
 40
0
 41
0
  0
VERTEX
  8
0
 10
1.76481
 20
10.6812
 30
0.0
 40
0
 41
0
  0
VERTEX
  8
0
 10
1.78982
 20
10.6981
 30
0.0
 40
0
 41
0
  0
VERTEX
  8
0
 10
1.80669
 20
10.7231
 30
0.0
 40
0
 41
0
  0
VERTEX
  8
0
 10
1.81287
 20
10.7537
 30
0.0
 40
0
 41
0
  0
SEQEND
 8
0
  0
POLYLINE
  8
0
 62
     0
 66
     1
 10
0
 20
0
 30
0.0
 70
     1
 40
0.992126
 41
0.992126
  0
VERTEX
  8
0
 10
1.81287
 20
10.7537
 30
0.0
 40
0.0137795
 41
0.0137795
  0
VERTEX
  8
0
 10
1.80669
 20
10.7844
 30
0.0
 40
0.0137795
 41
0.0137795
  0
VERTEX
  8
0
 10
1.78982
 20
10.8094
 30
0.0
 40
0.0137795
 41
0.0137795
  0
VERTEX
  8
0
 10
1.76481
 20
10.8263
 30
0.0
 40
0.0137795
 41
0.0137795
  0
VERTEX
  8
0
 10
1.73415
 20
10.8325
 30
0.0
 40
0.0137795
 41
0.0137795
  0
VERTEX
  8
0
 10
1.70344
 20
10.8263
 30
0.0
 40
0.0137795
 41
0.0137795
  0
VERTEX
  8
0
 10
1.67844
 20
10.8094
 30
0.0
 40
0.0137795
 41
0.0137795
  0
VERTEX
  8
0
 10
1.66157
 20
10.7844
 30
0.0
 40
0.0137795
 41
0.0137795
  0
VERTEX
  8
0
 10
1.65543
 20
10.7537
 30
0.0
 40
0.0137795
 41
0.0137795
  0
VERTEX
  8
0
 10
1.66157
 20
10.7231
 30
0.0
 40
0.0137795
 41
0.0137795
  0
VERTEX
  8
0
 10
1.67844
 20
10.6981
 30
0.0
 40
0.0137795
 41
0.0137795
  0
VERTEX
  8
0
 10
1.70344
 20
10.6812
 30
0.0
 40
0.0137795
 41
0.0137795
  0
VERTEX
  8
0
 10
1.73415
 20
10.675
 30
0.0
 40
0.0137795
 41
0.0137795
  0
VERTEX
  8
0
 10
1.76481
 20
10.6812
 30
0.0
 40
0.0137795
 41
0.0137795
  0
VERTEX
  8
0
 10
1.78982
 20
10.6981
 30
0.0
 40
0.0137795
 41
0.0137795
  0
VERTEX
  8
0
 10
1.80669
 20
10.7231
 30
0.0
 40
0.0137795
 41
0.0137795
  0
VERTEX
  8
0
 10
1.81287
 20
10.7537
 30
0.0
 40
0.0137795
 41
0.0137795
  0
SEQEND
 8
0
  0
POLYLINE
  8
0
 62
     254
 66
     1
 10
0
 20
0
 30
0.0
 70
     1
 40
0
 41
0
  0
VERTEX
  8
0
 10
4.37196
 20
10.7537
 30
0.0
 40
0
 41
0
  0
VERTEX
  8
0
 10
4.36572
 20
10.7844
 30
0.0
 40
0
 41
0
  0
VERTEX
  8
0
 10
4.34885
 20
10.8094
 30
0.0
 40
0
 41
0
  0
VERTEX
  8
0
 10
4.32383
 20
10.8263
 30
0.0
 40
0
 41
0
  0
VERTEX
  8
0
 10
4.29324
 20
10.8325
 30
0.0
 40
0
 41
0
  0
VERTEX
  8
0
 10
4.26253
 20
10.8263
 30
0.0
 40
0
 41
0
  0
VERTEX
  8
0
 10
4.23753
 20
10.8094
 30
0.0
 40
0
 41
0
  0
VERTEX
  8
0
 10
4.22065
 20
10.7844
 30
0.0
 40
0
 41
0
  0
VERTEX
  8
0
 10
4.21446
 20
10.7537
 30
0.0
 40
0
 41
0
  0
VERTEX
  8
0
 10
4.22065
 20
10.7231
 30
0.0
 40
0
 41
0
  0
VERTEX
  8
0
 10
4.23753
 20
10.6981
 30
0.0
 40
0
 41
0
  0
VERTEX
  8
0
 10
4.26253
 20
10.6812
 30
0.0
 40
0
 41
0
  0
VERTEX
  8
0
 10
4.29324
 20
10.675
 30
0.0
 40
0
 41
0
  0
VERTEX
  8
0
 10
4.32383
 20
10.6812
 30
0.0
 40
0
 41
0
  0
VERTEX
  8
0
 10
4.34885
 20
10.6981
 30
0.0
 40
0
 41
0
  0
VERTEX
  8
0
 10
4.36572
 20
10.7231
 30
0.0
 40
0
 41
0
  0
VERTEX
  8
0
 10
4.37196
 20
10.7537
 30
0.0
 40
0
 41
0
  0
SEQEND
 8
0
  0
POLYLINE
  8
0
 62
     0
 66
     1
 10
0
 20
0
 30
0.0
 70
     1
 40
0.992126
 41
0.992126
  0
VERTEX
  8
0
 10
4.37196
 20
10.7537
 30
0.0
 40
0.0137795
 41
0.0137795
  0
VERTEX
  8
0
 10
4.36572
 20
10.7844
 30
0.0
 40
0.0137795
 41
0.0137795
  0
VERTEX
  8
0
 10
4.34885
 20
10.8094
 30
0.0
 40
0.0137795
 41
0.0137795
  0
VERTEX
  8
0
 10
4.32383
 20
10.8263
 30
0.0
 40
0.0137795
 41
0.0137795
  0
VERTEX
  8
0
 10
4.29324
 20
10.8325
 30
0.0
 40
0.0137795
 41
0.0137795
  0
VERTEX
  8
0
 10
4.26253
 20
10.8263
 30
0.0
 40
0.0137795
 41
0.0137795
  0
VERTEX
  8
0
 10
4.23753
 20
10.8094
 30
0.0
 40
0.0137795
 41
0.0137795
  0
VERTEX
  8
0
 10
4.22065
 20
10.7844
 30
0.0
 40
0.0137795
 41
0.0137795
  0
VERTEX
  8
0
 10
4.21446
 20
10.7537
 30
0.0
 40
0.0137795
 41
0.0137795
  0
VERTEX
  8
0
 10
4.22065
 20
10.7231
 30
0.0
 40
0.0137795
 41
0.0137795
  0
VERTEX
  8
0
 10
4.23753
 20
10.6981
 30
0.0
 40
0.0137795
 41
0.0137795
  0
VERTEX
  8
0
 10
4.26253
 20
10.6812
 30
0.0
 40
0.0137795
 41
0.0137795
  0
VERTEX
  8
0
 10
4.29324
 20
10.675
 30
0.0
 40
0.0137795
 41
0.0137795
  0
VERTEX
  8
0
 10
4.32383
 20
10.6812
 30
0.0
 40
0.0137795
 41
0.0137795
  0
VERTEX
  8
0
 10
4.34885
 20
10.6981
 30
0.0
 40
0.0137795
 41
0.0137795
  0
VERTEX
  8
0
 10
4.36572
 20
10.7231
 30
0.0
 40
0.0137795
 41
0.0137795
  0
VERTEX
  8
0
 10
4.37196
 20
10.7537
 30
0.0
 40
0.0137795
 41
0.0137795
  0
SEQEND
 8
0
  0
POLYLINE
  8
0
 62
     254
 66
     1
 10
0
 20
0
 30
0.0
 70
     1
 40
0
 41
0
  0
VERTEX
  8
0
 10
20.5571
 20
3.58669
 30
0.0
 40
0
 41
0
  0
VERTEX
  8
0
 10
20.5508
 20
3.6174
 30
0.0
 40
0
 41
0
  0
VERTEX
  8
0
 10
20.5339
 20
3.64242
 30
0.0
 40
0
 41
0
  0
VERTEX
  8
0
 10
20.5089
 20
3.65929
 30
0.0
 40
0
 41
0
  0
VERTEX
  8
0
 10
20.4783
 20
3.66542
 30
0.0
 40
0
 41
0
  0
VERTEX
  8
0
 10
20.4476
 20
3.65929
 30
0.0
 40
0
 41
0
  0
VERTEX
  8
0
 10
20.4226
 20
3.64242
 30
0.0
 40
0
 41
0
  0
VERTEX
  8
0
 10
20.4057
 20
3.6174
 30
0.0
 40
0
 41
0
  0
VERTEX
  8
0
 10
20.3996
 20
3.58669
 30
0.0
 40
0
 41
0
  0
VERTEX
  8
0
 10
20.4057
 20
3.55604
 30
0.0
 40
0
 41
0
  0
VERTEX
  8
0
 10
20.4226
 20
3.53103
 30
0.0
 40
0
 41
0
  0
VERTEX
  8
0
 10
20.4476
 20
3.51417
 30
0.0
 40
0
 41
0
  0
VERTEX
  8
0
 10
20.4783
 20
3.50797
 30
0.0
 40
0
 41
0
  0
VERTEX
  8
0
 10
20.5089
 20
3.51417
 30
0.0
 40
0
 41
0
  0
VERTEX
  8
0
 10
20.5339
 20
3.53103
 30
0.0
 40
0
 41
0
  0
VERTEX
  8
0
 10
20.5508
 20
3.55604
 30
0.0
 40
0
 41
0
  0
VERTEX
  8
0
 10
20.5571
 20
3.58669
 30
0.0
 40
0
 41
0
  0
SEQEND
 8
0
  0
POLYLINE
  8
0
 62
     0
 66
     1
 10
0
 20
0
 30
0.0
 70
     1
 40
0.992126
 41
0.992126
  0
VERTEX
  8
0
 10
20.5571
 20
3.58669
 30
0.0
 40
0.0137795
 41
0.0137795
  0
VERTEX
  8
0
 10
20.5508
 20
3.6174
 30
0.0
 40
0.0137795
 41
0.0137795
  0
VERTEX
  8
0
 10
20.5339
 20
3.64242
 30
0.0
 40
0.0137795
 41
0.0137795
  0
VERTEX
  8
0
 10
20.5089
 20
3.65929
 30
0.0
 40
0.0137795
 41
0.0137795
  0
VERTEX
  8
0
 10
20.4783
 20
3.66542
 30
0.0
 40
0.0137795
 41
0.0137795
  0
VERTEX
  8
0
 10
20.4476
 20
3.65929
 30
0.0
 40
0.0137795
 41
0.0137795
  0
VERTEX
  8
0
 10
20.4226
 20
3.64242
 30
0.0
 40
0.0137795
 41
0.0137795
  0
VERTEX
  8
0
 10
20.4057
 20
3.6174
 30
0.0
 40
0.0137795
 41
0.0137795
  0
VERTEX
  8
0
 10
20.3996
 20
3.58669
 30
0.0
 40
0.0137795
 41
0.0137795
  0
VERTEX
  8
0
 10
20.4057
 20
3.55604
 30
0.0
 40
0.0137795
 41
0.0137795
  0
VERTEX
  8
0
 10
20.4226
 20
3.53103
 30
0.0
 40
0.0137795
 41
0.0137795
  0
VERTEX
  8
0
 10
20.4476
 20
3.51417
 30
0.0
 40
0.0137795
 41
0.0137795
  0
VERTEX
  8
0
 10
20.4783
 20
3.50797
 30
0.0
 40
0.0137795
 41
0.0137795
  0
VERTEX
  8
0
 10
20.5089
 20
3.51417
 30
0.0
 40
0.0137795
 41
0.0137795
  0
VERTEX
  8
0
 10
20.5339
 20
3.53103
 30
0.0
 40
0.0137795
 41
0.0137795
  0
VERTEX
  8
0
 10
20.5508
 20
3.55604
 30
0.0
 40
0.0137795
 41
0.0137795
  0
VERTEX
  8
0
 10
20.5571
 20
3.58669
 30
0.0
 40
0.0137795
 41
0.0137795
  0
SEQEND
 8
0
  0
POLYLINE
  8
0
 62
     254
 66
     1
 10
0
 20
0
 30
0.0
 70
     1
 40
0
 41
0
  0
VERTEX
  8
0
 10
14.9035
 20
13.608
 30
0.0
 40
0
 41
0
  0
VERTEX
  8
0
 10
14.8972
 20
13.6387
 30
0.0
 40
0
 41
0
  0
VERTEX
  8
0
 10
14.8804
 20
13.6637
 30
0.0
 40
0
 41
0
  0
VERTEX
  8
0
 10
14.8554
 20
13.6806
 30
0.0
 40
0
 41
0
  0
VERTEX
  8
0
 10
14.8247
 20
13.6868
 30
0.0
 40
0
 41
0
  0
VERTEX
  8
0
 10
14.794
 20
13.6806
 30
0.0
 40
0
 41
0
  0
VERTEX
  8
0
 10
14.769
 20
13.6637
 30
0.0
 40
0
 41
0
  0
VERTEX
  8
0
 10
14.7522
 20
13.6387
 30
0.0
 40
0
 41
0
  0
VERTEX
  8
0
 10
14.746
 20
13.608
 30
0.0
 40
0
 41
0
  0
VERTEX
  8
0
 10
14.7522
 20
13.5774
 30
0.0
 40
0
 41
0
  0
VERTEX
  8
0
 10
14.769
 20
13.5524
 30
0.0
 40
0
 41
0
  0
VERTEX
  8
0
 10
14.794
 20
13.5355
 30
0.0
 40
0
 41
0
  0
VERTEX
  8
0
 10
14.8247
 20
13.5293
 30
0.0
 40
0
 41
0
  0
VERTEX
  8
0
 10
14.8554
 20
13.5355
 30
0.0
 40
0
 41
0
  0
VERTEX
  8
0
 10
14.8804
 20
13.5524
 30
0.0
 40
0
 41
0
  0
VERTEX
  8
0
 10
14.8972
 20
13.5774
 30
0.0
 40
0
 41
0
  0
VERTEX
  8
0
 10
14.9035
 20
13.608
 30
0.0
 40
0
 41
0
  0
SEQEND
 8
0
  0
POLYLINE
  8
0
 62
     0
 66
     1
 10
0
 20
0
 30
0.0
 70
     1
 40
0.992126
 41
0.992126
  0
VERTEX
  8
0
 10
14.9035
 20
13.608
 30
0.0
 40
0.0137795
 41
0.0137795
  0
VERTEX
  8
0
 10
14.8972
 20
13.6387
 30
0.0
 40
0.0137795
 41
0.0137795
  0
VERTEX
  8
0
 10
14.8804
 20
13.6637
 30
0.0
 40
0.0137795
 41
0.0137795
  0
VERTEX
  8
0
 10
14.8554
 20
13.6806
 30
0.0
 40
0.0137795
 41
0.0137795
  0
VERTEX
  8
0
 10
14.8247
 20
13.6868
 30
0.0
 40
0.0137795
 41
0.0137795
  0
VERTEX
  8
0
 10
14.794
 20
13.6806
 30
0.0
 40
0.0137795
 41
0.0137795
  0
VERTEX
  8
0
 10
14.769
 20
13.6637
 30
0.0
 40
0.0137795
 41
0.0137795
  0
VERTEX
  8
0
 10
14.7522
 20
13.6387
 30
0.0
 40
0.0137795
 41
0.0137795
  0
VERTEX
  8
0
 10
14.746
 20
13.608
 30
0.0
 40
0.0137795
 41
0.0137795
  0
VERTEX
  8
0
 10
14.7522
 20
13.5774
 30
0.0
 40
0.0137795
 41
0.0137795
  0
VERTEX
  8
0
 10
14.769
 20
13.5524
 30
0.0
 40
0.0137795
 41
0.0137795
  0
VERTEX
  8
0
 10
14.794
 20
13.5355
 30
0.0
 40
0.0137795
 41
0.0137795
  0
VERTEX
  8
0
 10
14.8247
 20
13.5293
 30
0.0
 40
0.0137795
 41
0.0137795
  0
VERTEX
  8
0
 10
14.8554
 20
13.5355
 30
0.0
 40
0.0137795
 41
0.0137795
  0
VERTEX
  8
0
 10
14.8804
 20
13.5524
 30
0.0
 40
0.0137795
 41
0.0137795
  0
VERTEX
  8
0
 10
14.8972
 20
13.5774
 30
0.0
 40
0.0137795
 41
0.0137795
  0
VERTEX
  8
0
 10
14.9035
 20
13.608
 30
0.0
 40
0.0137795
 41
0.0137795
  0
SEQEND
 8
0
  0
POLYLINE
  8
0
 62
     254
 66
     1
 10
0
 20
0
 30
0.0
 70
     1
 40
0
 41
0
  0
VERTEX
  8
0
 10
18.8404
 20
19.9072
 30
0.0
 40
0
 41
0
  0
VERTEX
  8
0
 10
18.8343
 20
19.9379
 30
0.0
 40
0
 41
0
  0
VERTEX
  8
0
 10
18.8174
 20
19.9629
 30
0.0
 40
0
 41
0
  0
VERTEX
  8
0
 10
18.7924
 20
19.9799
 30
0.0
 40
0
 41
0
  0
VERTEX
  8
0
 10
18.7617
 20
19.986
 30
0.0
 40
0
 41
0
  0
VERTEX
  8
0
 10
18.731
 20
19.9799
 30
0.0
 40
0
 41
0
  0
VERTEX
  8
0
 10
18.706
 20
19.9629
 30
0.0
 40
0
 41
0
  0
VERTEX
  8
0
 10
18.6892
 20
19.9379
 30
0.0
 40
0
 41
0
  0
VERTEX
  8
0
 10
18.6831
 20
19.9072
 30
0.0
 40
0
 41
0
  0
VERTEX
  8
0
 10
18.6892
 20
19.8767
 30
0.0
 40
0
 41
0
  0
VERTEX
  8
0
 10
18.706
 20
19.8517
 30
0.0
 40
0
 41
0
  0
VERTEX
  8
0
 10
18.731
 20
19.8347
 30
0.0
 40
0
 41
0
  0
VERTEX
  8
0
 10
18.7617
 20
19.8285
 30
0.0
 40
0
 41
0
  0
VERTEX
  8
0
 10
18.7924
 20
19.8347
 30
0.0
 40
0
 41
0
  0
VERTEX
  8
0
 10
18.8174
 20
19.8517
 30
0.0
 40
0
 41
0
  0
VERTEX
  8
0
 10
18.8343
 20
19.8767
 30
0.0
 40
0
 41
0
  0
VERTEX
  8
0
 10
18.8404
 20
19.9072
 30
0.0
 40
0
 41
0
  0
SEQEND
 8
0
  0
POLYLINE
  8
0
 62
     0
 66
     1
 10
0
 20
0
 30
0.0
 70
     1
 40
0.992126
 41
0.992126
  0
VERTEX
  8
0
 10
18.8404
 20
19.9072
 30
0.0
 40
0.0137795
 41
0.0137795
  0
VERTEX
  8
0
 10
18.8343
 20
19.9379
 30
0.0
 40
0.0137795
 41
0.0137795
  0
VERTEX
  8
0
 10
18.8174
 20
19.9629
 30
0.0
 40
0.0137795
 41
0.0137795
  0
VERTEX
  8
0
 10
18.7924
 20
19.9799
 30
0.0
 40
0.0137795
 41
0.0137795
  0
VERTEX
  8
0
 10
18.7617
 20
19.986
 30
0.0
 40
0.0137795
 41
0.0137795
  0
VERTEX
  8
0
 10
18.731
 20
19.9799
 30
0.0
 40
0.0137795
 41
0.0137795
  0
VERTEX
  8
0
 10
18.706
 20
19.9629
 30
0.0
 40
0.0137795
 41
0.0137795
  0
VERTEX
  8
0
 10
18.6892
 20
19.9379
 30
0.0
 40
0.0137795
 41
0.0137795
  0
VERTEX
  8
0
 10
18.6831
 20
19.9072
 30
0.0
 40
0.0137795
 41
0.0137795
  0
VERTEX
  8
0
 10
18.6892
 20
19.8767
 30
0.0
 40
0.0137795
 41
0.0137795
  0
VERTEX
  8
0
 10
18.706
 20
19.8517
 30
0.0
 40
0.0137795
 41
0.0137795
  0
VERTEX
  8
0
 10
18.731
 20
19.8347
 30
0.0
 40
0.0137795
 41
0.0137795
  0
VERTEX
  8
0
 10
18.7617
 20
19.8285
 30
0.0
 40
0.0137795
 41
0.0137795
  0
VERTEX
  8
0
 10
18.7924
 20
19.8347
 30
0.0
 40
0.0137795
 41
0.0137795
  0
VERTEX
  8
0
 10
18.8174
 20
19.8517
 30
0.0
 40
0.0137795
 41
0.0137795
  0
VERTEX
  8
0
 10
18.8343
 20
19.8767
 30
0.0
 40
0.0137795
 41
0.0137795
  0
VERTEX
  8
0
 10
18.8404
 20
19.9072
 30
0.0
 40
0.0137795
 41
0.0137795
  0
SEQEND
 8
0
  0
POLYLINE
  8
0
 62
     254
 66
     1
 10
0
 20
0
 30
0.0
 70
     1
 40
0
 41
0
  0
VERTEX
  8
0
 10
17.1154
 20
19.3319
 30
0.0
 40
0
 41
0
  0
VERTEX
  8
0
 10
17.1092
 20
19.3626
 30
0.0
 40
0
 41
0
  0
VERTEX
  8
0
 10
17.0922
 20
19.3876
 30
0.0
 40
0
 41
0
  0
VERTEX
  8
0
 10
17.0672
 20
19.4044
 30
0.0
 40
0
 41
0
  0
VERTEX
  8
0
 10
17.0367
 20
19.4107
 30
0.0
 40
0
 41
0
  0
VERTEX
  8
0
 10
17.006
 20
19.4044
 30
0.0
 40
0
 41
0
  0
VERTEX
  8
0
 10
16.981
 20
19.3876
 30
0.0
 40
0
 41
0
  0
VERTEX
  8
0
 10
16.964
 20
19.3626
 30
0.0
 40
0
 41
0
  0
VERTEX
  8
0
 10
16.9579
 20
19.3319
 30
0.0
 40
0
 41
0
  0
VERTEX
  8
0
 10
16.964
 20
19.3014
 30
0.0
 40
0
 41
0
  0
VERTEX
  8
0
 10
16.981
 20
19.2763
 30
0.0
 40
0
 41
0
  0
VERTEX
  8
0
 10
17.006
 20
19.2594
 30
0.0
 40
0
 41
0
  0
VERTEX
  8
0
 10
17.0367
 20
19.2532
 30
0.0
 40
0
 41
0
  0
VERTEX
  8
0
 10
17.0672
 20
19.2594
 30
0.0
 40
0
 41
0
  0
VERTEX
  8
0
 10
17.0922
 20
19.2763
 30
0.0
 40
0
 41
0
  0
VERTEX
  8
0
 10
17.1092
 20
19.3014
 30
0.0
 40
0
 41
0
  0
VERTEX
  8
0
 10
17.1154
 20
19.3319
 30
0.0
 40
0
 41
0
  0
SEQEND
 8
0
  0
POLYLINE
  8
0
 62
     0
 66
     1
 10
0
 20
0
 30
0.0
 70
     1
 40
0.992126
 41
0.992126
  0
VERTEX
  8
0
 10
17.1154
 20
19.3319
 30
0.0
 40
0.0137795
 41
0.0137795
  0
VERTEX
  8
0
 10
17.1092
 20
19.3626
 30
0.0
 40
0.0137795
 41
0.0137795
  0
VERTEX
  8
0
 10
17.0922
 20
19.3876
 30
0.0
 40
0.0137795
 41
0.0137795
  0
VERTEX
  8
0
 10
17.0672
 20
19.4044
 30
0.0
 40
0.0137795
 41
0.0137795
  0
VERTEX
  8
0
 10
17.0367
 20
19.4107
 30
0.0
 40
0.0137795
 41
0.0137795
  0
VERTEX
  8
0
 10
17.006
 20
19.4044
 30
0.0
 40
0.0137795
 41
0.0137795
  0
VERTEX
  8
0
 10
16.981
 20
19.3876
 30
0.0
 40
0.0137795
 41
0.0137795
  0
VERTEX
  8
0
 10
16.964
 20
19.3626
 30
0.0
 40
0.0137795
 41
0.0137795
  0
VERTEX
  8
0
 10
16.9579
 20
19.3319
 30
0.0
 40
0.0137795
 41
0.0137795
  0
VERTEX
  8
0
 10
16.964
 20
19.3014
 30
0.0
 40
0.0137795
 41
0.0137795
  0
VERTEX
  8
0
 10
16.981
 20
19.2763
 30
0.0
 40
0.0137795
 41
0.0137795
  0
VERTEX
  8
0
 10
17.006
 20
19.2594
 30
0.0
 40
0.0137795
 41
0.0137795
  0
VERTEX
  8
0
 10
17.0367
 20
19.2532
 30
0.0
 40
0.0137795
 41
0.0137795
  0
VERTEX
  8
0
 10
17.0672
 20
19.2594
 30
0.0
 40
0.0137795
 41
0.0137795
  0
VERTEX
  8
0
 10
17.0922
 20
19.2763
 30
0.0
 40
0.0137795
 41
0.0137795
  0
VERTEX
  8
0
 10
17.1092
 20
19.3014
 30
0.0
 40
0.0137795
 41
0.0137795
  0
VERTEX
  8
0
 10
17.1154
 20
19.3319
 30
0.0
 40
0.0137795
 41
0.0137795
  0
SEQEND
 8
0
  0
POLYLINE
  8
0
 62
     254
 66
     1
 10
0
 20
0
 30
0.0
 70
     1
 40
0
 41
0
  0
VERTEX
  8
0
 10
17.1124
 20
4.72553
 30
0.0
 40
0
 41
0
  0
VERTEX
  8
0
 10
17.1061
 20
4.75618
 30
0.0
 40
0
 41
0
  0
VERTEX
  8
0
 10
17.0893
 20
4.78119
 30
0.0
 40
0
 41
0
  0
VERTEX
  8
0
 10
17.0643
 20
4.79807
 30
0.0
 40
0
 41
0
  0
VERTEX
  8
0
 10
17.0338
 20
4.80425
 30
0.0
 40
0
 41
0
  0
VERTEX
  8
0
 10
17.0029
 20
4.79807
 30
0.0
 40
0
 41
0
  0
VERTEX
  8
0
 10
16.9779
 20
4.78119
 30
0.0
 40
0
 41
0
  0
VERTEX
  8
0
 10
16.9611
 20
4.75618
 30
0.0
 40
0
 41
0
  0
VERTEX
  8
0
 10
16.9549
 20
4.72553
 30
0.0
 40
0
 41
0
  0
VERTEX
  8
0
 10
16.9611
 20
4.69488
 30
0.0
 40
0
 41
0
  0
VERTEX
  8
0
 10
16.9779
 20
4.66986
 30
0.0
 40
0
 41
0
  0
VERTEX
  8
0
 10
17.0029
 20
4.653
 30
0.0
 40
0
 41
0
  0
VERTEX
  8
0
 10
17.0338
 20
4.64675
 30
0.0
 40
0
 41
0
  0
VERTEX
  8
0
 10
17.0643
 20
4.653
 30
0.0
 40
0
 41
0
  0
VERTEX
  8
0
 10
17.0893
 20
4.66986
 30
0.0
 40
0
 41
0
  0
VERTEX
  8
0
 10
17.1061
 20
4.69488
 30
0.0
 40
0
 41
0
  0
VERTEX
  8
0
 10
17.1124
 20
4.72553
 30
0.0
 40
0
 41
0
  0
SEQEND
 8
0
  0
POLYLINE
  8
0
 62
     0
 66
     1
 10
0
 20
0
 30
0.0
 70
     1
 40
0.992126
 41
0.992126
  0
VERTEX
  8
0
 10
17.1124
 20
4.72553
 30
0.0
 40
0.0137795
 41
0.0137795
  0
VERTEX
  8
0
 10
17.1061
 20
4.75618
 30
0.0
 40
0.0137795
 41
0.0137795
  0
VERTEX
  8
0
 10
17.0893
 20
4.78119
 30
0.0
 40
0.0137795
 41
0.0137795
  0
VERTEX
  8
0
 10
17.0643
 20
4.79807
 30
0.0
 40
0.0137795
 41
0.0137795
  0
VERTEX
  8
0
 10
17.0338
 20
4.80425
 30
0.0
 40
0.0137795
 41
0.0137795
  0
VERTEX
  8
0
 10
17.0029
 20
4.79807
 30
0.0
 40
0.0137795
 41
0.0137795
  0
VERTEX
  8
0
 10
16.9779
 20
4.78119
 30
0.0
 40
0.0137795
 41
0.0137795
  0
VERTEX
  8
0
 10
16.9611
 20
4.75618
 30
0.0
 40
0.0137795
 41
0.0137795
  0
VERTEX
  8
0
 10
16.9549
 20
4.72553
 30
0.0
 40
0.0137795
 41
0.0137795
  0
VERTEX
  8
0
 10
16.9611
 20
4.69488
 30
0.0
 40
0.0137795
 41
0.0137795
  0
VERTEX
  8
0
 10
16.9779
 20
4.66986
 30
0.0
 40
0.0137795
 41
0.0137795
  0
VERTEX
  8
0
 10
17.0029
 20
4.653
 30
0.0
 40
0.0137795
 41
0.0137795
  0
VERTEX
  8
0
 10
17.0338
 20
4.64675
 30
0.0
 40
0.0137795
 41
0.0137795
  0
VERTEX
  8
0
 10
17.0643
 20
4.653
 30
0.0
 40
0.0137795
 41
0.0137795
  0
VERTEX
  8
0
 10
17.0893
 20
4.66986
 30
0.0
 40
0.0137795
 41
0.0137795
  0
VERTEX
  8
0
 10
17.1061
 20
4.69488
 30
0.0
 40
0.0137795
 41
0.0137795
  0
VERTEX
  8
0
 10
17.1124
 20
4.72553
 30
0.0
 40
0.0137795
 41
0.0137795
  0
SEQEND
 8
0
  0
POLYLINE
  8
0
 62
     254
 66
     1
 10
0
 20
0
 30
0.0
 70
     1
 40
0
 41
0
  0
VERTEX
  8
0
 10
1.81287
 20
13.3128
 30
0.0
 40
0
 41
0
  0
VERTEX
  8
0
 10
1.80669
 20
13.3434
 30
0.0
 40
0
 41
0
  0
VERTEX
  8
0
 10
1.78982
 20
13.3684
 30
0.0
 40
0
 41
0
  0
VERTEX
  8
0
 10
1.76481
 20
13.3853
 30
0.0
 40
0
 41
0
  0
VERTEX
  8
0
 10
1.73415
 20
13.3915
 30
0.0
 40
0
 41
0
  0
VERTEX
  8
0
 10
1.70344
 20
13.3853
 30
0.0
 40
0
 41
0
  0
VERTEX
  8
0
 10
1.67844
 20
13.3684
 30
0.0
 40
0
 41
0
  0
VERTEX
  8
0
 10
1.66157
 20
13.3434
 30
0.0
 40
0
 41
0
  0
VERTEX
  8
0
 10
1.65543
 20
13.3128
 30
0.0
 40
0
 41
0
  0
VERTEX
  8
0
 10
1.66157
 20
13.2821
 30
0.0
 40
0
 41
0
  0
VERTEX
  8
0
 10
1.67844
 20
13.2571
 30
0.0
 40
0
 41
0
  0
VERTEX
  8
0
 10
1.70344
 20
13.2402
 30
0.0
 40
0
 41
0
  0
VERTEX
  8
0
 10
1.73415
 20
13.234
 30
0.0
 40
0
 41
0
  0
VERTEX
  8
0
 10
1.76481
 20
13.2402
 30
0.0
 40
0
 41
0
  0
VERTEX
  8
0
 10
1.78982
 20
13.2571
 30
0.0
 40
0
 41
0
  0
VERTEX
  8
0
 10
1.80669
 20
13.2821
 30
0.0
 40
0
 41
0
  0
VERTEX
  8
0
 10
1.81287
 20
13.3128
 30
0.0
 40
0
 41
0
  0
SEQEND
 8
0
  0
POLYLINE
  8
0
 62
     0
 66
     1
 10
0
 20
0
 30
0.0
 70
     1
 40
0.992126
 41
0.992126
  0
VERTEX
  8
0
 10
1.81287
 20
13.3128
 30
0.0
 40
0.0137795
 41
0.0137795
  0
VERTEX
  8
0
 10
1.80669
 20
13.3434
 30
0.0
 40
0.0137795
 41
0.0137795
  0
VERTEX
  8
0
 10
1.78982
 20
13.3684
 30
0.0
 40
0.0137795
 41
0.0137795
  0
VERTEX
  8
0
 10
1.76481
 20
13.3853
 30
0.0
 40
0.0137795
 41
0.0137795
  0
VERTEX
  8
0
 10
1.73415
 20
13.3915
 30
0.0
 40
0.0137795
 41
0.0137795
  0
VERTEX
  8
0
 10
1.70344
 20
13.3853
 30
0.0
 40
0.0137795
 41
0.0137795
  0
VERTEX
  8
0
 10
1.67844
 20
13.3684
 30
0.0
 40
0.0137795
 41
0.0137795
  0
VERTEX
  8
0
 10
1.66157
 20
13.3434
 30
0.0
 40
0.0137795
 41
0.0137795
  0
VERTEX
  8
0
 10
1.65543
 20
13.3128
 30
0.0
 40
0.0137795
 41
0.0137795
  0
VERTEX
  8
0
 10
1.66157
 20
13.2821
 30
0.0
 40
0.0137795
 41
0.0137795
  0
VERTEX
  8
0
 10
1.67844
 20
13.2571
 30
0.0
 40
0.0137795
 41
0.0137795
  0
VERTEX
  8
0
 10
1.70344
 20
13.2402
 30
0.0
 40
0.0137795
 41
0.0137795
  0
VERTEX
  8
0
 10
1.73415
 20
13.234
 30
0.0
 40
0.0137795
 41
0.0137795
  0
VERTEX
  8
0
 10
1.76481
 20
13.2402
 30
0.0
 40
0.0137795
 41
0.0137795
  0
VERTEX
  8
0
 10
1.78982
 20
13.2571
 30
0.0
 40
0.0137795
 41
0.0137795
  0
VERTEX
  8
0
 10
1.80669
 20
13.2821
 30
0.0
 40
0.0137795
 41
0.0137795
  0
VERTEX
  8
0
 10
1.81287
 20
13.3128
 30
0.0
 40
0.0137795
 41
0.0137795
  0
SEQEND
 8
0
  0
POLYLINE
  8
0
 62
     254
 66
     1
 10
0
 20
0
 30
0.0
 70
     1
 40
0
 41
0
  0
VERTEX
  8
0
 10
3.09244
 20
12.0332
 30
0.0
 40
0
 41
0
  0
VERTEX
  8
0
 10
3.08621
 20
12.0639
 30
0.0
 40
0
 41
0
  0
VERTEX
  8
0
 10
3.06933
 20
12.0889
 30
0.0
 40
0
 41
0
  0
VERTEX
  8
0
 10
3.04432
 20
12.1058
 30
0.0
 40
0
 41
0
  0
VERTEX
  8
0
 10
3.01367
 20
12.112
 30
0.0
 40
0
 41
0
  0
VERTEX
  8
0
 10
2.98301
 20
12.1058
 30
0.0
 40
0
 41
0
  0
VERTEX
  8
0
 10
2.95801
 20
12.0889
 30
0.0
 40
0
 41
0
  0
VERTEX
  8
0
 10
2.94114
 20
12.0639
 30
0.0
 40
0
 41
0
  0
VERTEX
  8
0
 10
2.93494
 20
12.0332
 30
0.0
 40
0
 41
0
  0
VERTEX
  8
0
 10
2.94114
 20
12.0026
 30
0.0
 40
0
 41
0
  0
VERTEX
  8
0
 10
2.95801
 20
11.9776
 30
0.0
 40
0
 41
0
  0
VERTEX
  8
0
 10
2.98301
 20
11.9607
 30
0.0
 40
0
 41
0
  0
VERTEX
  8
0
 10
3.01367
 20
11.9545
 30
0.0
 40
0
 41
0
  0
VERTEX
  8
0
 10
3.04432
 20
11.9607
 30
0.0
 40
0
 41
0
  0
VERTEX
  8
0
 10
3.06933
 20
11.9776
 30
0.0
 40
0
 41
0
  0
VERTEX
  8
0
 10
3.08621
 20
12.0026
 30
0.0
 40
0
 41
0
  0
VERTEX
  8
0
 10
3.09244
 20
12.0332
 30
0.0
 40
0
 41
0
  0
SEQEND
 8
0
  0
POLYLINE
  8
0
 62
     0
 66
     1
 10
0
 20
0
 30
0.0
 70
     1
 40
0.992126
 41
0.992126
  0
VERTEX
  8
0
 10
3.09244
 20
12.0332
 30
0.0
 40
0.0137795
 41
0.0137795
  0
VERTEX
  8
0
 10
3.08621
 20
12.0639
 30
0.0
 40
0.0137795
 41
0.0137795
  0
VERTEX
  8
0
 10
3.06933
 20
12.0889
 30
0.0
 40
0.0137795
 41
0.0137795
  0
VERTEX
  8
0
 10
3.04432
 20
12.1058
 30
0.0
 40
0.0137795
 41
0.0137795
  0
VERTEX
  8
0
 10
3.01367
 20
12.112
 30
0.0
 40
0.0137795
 41
0.0137795
  0
VERTEX
  8
0
 10
2.98301
 20
12.1058
 30
0.0
 40
0.0137795
 41
0.0137795
  0
VERTEX
  8
0
 10
2.95801
 20
12.0889
 30
0.0
 40
0.0137795
 41
0.0137795
  0
VERTEX
  8
0
 10
2.94114
 20
12.0639
 30
0.0
 40
0.0137795
 41
0.0137795
  0
VERTEX
  8
0
 10
2.93494
 20
12.0332
 30
0.0
 40
0.0137795
 41
0.0137795
  0
VERTEX
  8
0
 10
2.94114
 20
12.0026
 30
0.0
 40
0.0137795
 41
0.0137795
  0
VERTEX
  8
0
 10
2.95801
 20
11.9776
 30
0.0
 40
0.0137795
 41
0.0137795
  0
VERTEX
  8
0
 10
2.98301
 20
11.9607
 30
0.0
 40
0.0137795
 41
0.0137795
  0
VERTEX
  8
0
 10
3.01367
 20
11.9545
 30
0.0
 40
0.0137795
 41
0.0137795
  0
VERTEX
  8
0
 10
3.04432
 20
11.9607
 30
0.0
 40
0.0137795
 41
0.0137795
  0
VERTEX
  8
0
 10
3.06933
 20
11.9776
 30
0.0
 40
0.0137795
 41
0.0137795
  0
VERTEX
  8
0
 10
3.08621
 20
12.0026
 30
0.0
 40
0.0137795
 41
0.0137795
  0
VERTEX
  8
0
 10
3.09244
 20
12.0332
 30
0.0
 40
0.0137795
 41
0.0137795
  0
SEQEND
 8
0
  0
POLYLINE
  8
0
 62
     254
 66
     1
 10
0
 20
0
 30
0.0
 70
     1
 40
0
 41
0
  0
VERTEX
  8
0
 10
14.9035
 20
10.4584
 30
0.0
 40
0
 41
0
  0
VERTEX
  8
0
 10
14.8972
 20
10.4891
 30
0.0
 40
0
 41
0
  0
VERTEX
  8
0
 10
14.8804
 20
10.5141
 30
0.0
 40
0
 41
0
  0
VERTEX
  8
0
 10
14.8554
 20
10.531
 30
0.0
 40
0
 41
0
  0
VERTEX
  8
0
 10
14.8247
 20
10.5372
 30
0.0
 40
0
 41
0
  0
VERTEX
  8
0
 10
14.794
 20
10.531
 30
0.0
 40
0
 41
0
  0
VERTEX
  8
0
 10
14.769
 20
10.5141
 30
0.0
 40
0
 41
0
  0
VERTEX
  8
0
 10
14.7522
 20
10.4891
 30
0.0
 40
0
 41
0
  0
VERTEX
  8
0
 10
14.746
 20
10.4584
 30
0.0
 40
0
 41
0
  0
VERTEX
  8
0
 10
14.7522
 20
10.4278
 30
0.0
 40
0
 41
0
  0
VERTEX
  8
0
 10
14.769
 20
10.4028
 30
0.0
 40
0
 41
0
  0
VERTEX
  8
0
 10
14.794
 20
10.3859
 30
0.0
 40
0
 41
0
  0
VERTEX
  8
0
 10
14.8247
 20
10.3797
 30
0.0
 40
0
 41
0
  0
VERTEX
  8
0
 10
14.8554
 20
10.3859
 30
0.0
 40
0
 41
0
  0
VERTEX
  8
0
 10
14.8804
 20
10.4028
 30
0.0
 40
0
 41
0
  0
VERTEX
  8
0
 10
14.8972
 20
10.4278
 30
0.0
 40
0
 41
0
  0
VERTEX
  8
0
 10
14.9035
 20
10.4584
 30
0.0
 40
0
 41
0
  0
SEQEND
 8
0
  0
POLYLINE
  8
0
 62
     0
 66
     1
 10
0
 20
0
 30
0.0
 70
     1
 40
0.992126
 41
0.992126
  0
VERTEX
  8
0
 10
14.9035
 20
10.4584
 30
0.0
 40
0.0137795
 41
0.0137795
  0
VERTEX
  8
0
 10
14.8972
 20
10.4891
 30
0.0
 40
0.0137795
 41
0.0137795
  0
VERTEX
  8
0
 10
14.8804
 20
10.5141
 30
0.0
 40
0.0137795
 41
0.0137795
  0
VERTEX
  8
0
 10
14.8554
 20
10.531
 30
0.0
 40
0.0137795
 41
0.0137795
  0
VERTEX
  8
0
 10
14.8247
 20
10.5372
 30
0.0
 40
0.0137795
 41
0.0137795
  0
VERTEX
  8
0
 10
14.794
 20
10.531
 30
0.0
 40
0.0137795
 41
0.0137795
  0
VERTEX
  8
0
 10
14.769
 20
10.5141
 30
0.0
 40
0.0137795
 41
0.0137795
  0
VERTEX
  8
0
 10
14.7522
 20
10.4891
 30
0.0
 40
0.0137795
 41
0.0137795
  0
VERTEX
  8
0
 10
14.746
 20
10.4584
 30
0.0
 40
0.0137795
 41
0.0137795
  0
VERTEX
  8
0
 10
14.7522
 20
10.4278
 30
0.0
 40
0.0137795
 41
0.0137795
  0
VERTEX
  8
0
 10
14.769
 20
10.4028
 30
0.0
 40
0.0137795
 41
0.0137795
  0
VERTEX
  8
0
 10
14.794
 20
10.3859
 30
0.0
 40
0.0137795
 41
0.0137795
  0
VERTEX
  8
0
 10
14.8247
 20
10.3797
 30
0.0
 40
0.0137795
 41
0.0137795
  0
VERTEX
  8
0
 10
14.8554
 20
10.3859
 30
0.0
 40
0.0137795
 41
0.0137795
  0
VERTEX
  8
0
 10
14.8804
 20
10.4028
 30
0.0
 40
0.0137795
 41
0.0137795
  0
VERTEX
  8
0
 10
14.8972
 20
10.4278
 30
0.0
 40
0.0137795
 41
0.0137795
  0
VERTEX
  8
0
 10
14.9035
 20
10.4584
 30
0.0
 40
0.0137795
 41
0.0137795
  0
SEQEND
 8
0
  0
POLYLINE
  8
0
 62
     0
 66
     1
 10
0
 20
0
 30
0.0
 70
     1
 40
0.992126
 41
0.992126
  0
VERTEX
  8
0
 10
10.494
 20
14.0017
 30
0.0
 40
0.0137795
 41
0.0137795
  0
VERTEX
  8
0
 10
10.4146
 20
13.9618
 30
0.0
 40
0.0137795
 41
0.0137795
  0
VERTEX
  8
0
 10
10.3407
 20
13.8471
 30
0.0
 40
0.0137795
 41
0.0137795
  0
VERTEX
  8
0
 10
10.2739
 20
13.6656
 30
0.0
 40
0.0137795
 41
0.0137795
  0
VERTEX
  8
0
 10
10.2156
 20
13.4252
 30
0.0
 40
0.0137795
 41
0.0137795
  0
VERTEX
  8
0
 10
10.1675
 20
13.1338
 30
0.0
 40
0.0137795
 41
0.0137795
  0
VERTEX
  8
0
 10
10.1312
 20
12.7995
 30
0.0
 40
0.0137795
 41
0.0137795
  0
VERTEX
  8
0
 10
10.1083
 20
12.43
 30
0.0
 40
0.0137795
 41
0.0137795
  0
VERTEX
  8
0
 10
10.1003
 20
12.0332
 30
0.0
 40
0.0137795
 41
0.0137795
  0
VERTEX
  8
0
 10
10.1083
 20
11.6365
 30
0.0
 40
0.0137795
 41
0.0137795
  0
VERTEX
  8
0
 10
10.1312
 20
11.267
 30
0.0
 40
0.0137795
 41
0.0137795
  0
VERTEX
  8
0
 10
10.1675
 20
10.9327
 30
0.0
 40
0.0137795
 41
0.0137795
  0
VERTEX
  8
0
 10
10.2156
 20
10.6413
 30
0.0
 40
0.0137795
 41
0.0137795
  0
VERTEX
  8
0
 10
10.2739
 20
10.4009
 30
0.0
 40
0.0137795
 41
0.0137795
  0
VERTEX
  8
0
 10
10.3407
 20
10.2195
 30
0.0
 40
0.0137795
 41
0.0137795
  0
VERTEX
  8
0
 10
10.4146
 20
10.1048
 30
0.0
 40
0.0137795
 41
0.0137795
  0
VERTEX
  8
0
 10
10.494
 20
10.0647
 30
0.0
 40
0.0137795
 41
0.0137795
  0
VERTEX
  8
0
 10
10.5733
 20
10.1048
 30
0.0
 40
0.0137795
 41
0.0137795
  0
VERTEX
  8
0
 10
10.6472
 20
10.2195
 30
0.0
 40
0.0137795
 41
0.0137795
  0
VERTEX
  8
0
 10
10.7141
 20
10.4009
 30
0.0
 40
0.0137795
 41
0.0137795
  0
VERTEX
  8
0
 10
10.7723
 20
10.6413
 30
0.0
 40
0.0137795
 41
0.0137795
  0
VERTEX
  8
0
 10
10.8204
 20
10.9327
 30
0.0
 40
0.0137795
 41
0.0137795
  0
VERTEX
  8
0
 10
10.8567
 20
11.267
 30
0.0
 40
0.0137795
 41
0.0137795
  0
VERTEX
  8
0
 10
10.8797
 20
11.6365
 30
0.0
 40
0.0137795
 41
0.0137795
  0
VERTEX
  8
0
 10
10.8877
 20
12.0332
 30
0.0
 40
0.0137795
 41
0.0137795
  0
VERTEX
  8
0
 10
10.8797
 20
12.43
 30
0.0
 40
0.0137795
 41
0.0137795
  0
VERTEX
  8
0
 10
10.8567
 20
12.7995
 30
0.0
 40
0.0137795
 41
0.0137795
  0
VERTEX
  8
0
 10
10.8204
 20
13.1338
 30
0.0
 40
0.0137795
 41
0.0137795
  0
VERTEX
  8
0
 10
10.7723
 20
13.4252
 30
0.0
 40
0.0137795
 41
0.0137795
  0
VERTEX
  8
0
 10
10.7141
 20
13.6656
 30
0.0
 40
0.0137795
 41
0.0137795
  0
VERTEX
  8
0
 10
10.6472
 20
13.8471
 30
0.0
 40
0.0137795
 41
0.0137795
  0
VERTEX
  8
0
 10
10.5733
 20
13.9618
 30
0.0
 40
0.0137795
 41
0.0137795
  0
VERTEX
  8
0
 10
10.494
 20
14.0017
 30
0.0
 40
0.0137795
 41
0.0137795
  0
SEQEND
 8
0
  0
POLYLINE
  8
0
 62
     0
 66
     1
 10
0
 20
0
 30
0.0
 70
     1
 40
0.992126
 41
0.992126
  0
VERTEX
  8
0
 10
15.6121
 20
0.222222
 30
0.0
 40
0.0137795
 41
0.0137795
  0
VERTEX
  8
0
 10
16.5058
 20
0.0925564
 30
0.0
 40
0.0137795
 41
0.0137795
  0
VERTEX
  8
0
 10
17.4058
 20
0.0493707
 30
0.0
 40
0.0137795
 41
0.0137795
  0
VERTEX
  8
0
 10
18.3058
 20
0.0925564
 30
0.0
 40
0.0137795
 41
0.0137795
  0
VERTEX
  8
0
 10
19.1997
 20
0.222222
 30
0.0
 40
0.0137795
 41
0.0137795
  0
VERTEX
  8
0
 10
19.6642
 20
0.341797
 30
0.0
 40
0.0137795
 41
0.0137795
  0
VERTEX
  8
0
 10
20.1065
 20
0.513835
 30
0.0
 40
0.0137795
 41
0.0137795
  0
VERTEX
  8
0
 10
20.5228
 20
0.735297
 30
0.0
 40
0.0137795
 41
0.0137795
  0
VERTEX
  8
0
 10
20.909
 20
1.00309
 30
0.0
 40
0.0137795
 41
0.0137795
  0
VERTEX
  8
0
 10
21.2613
 20
1.31418
 30
0.0
 40
0.0137795
 41
0.0137795
  0
VERTEX
  8
0
 10
21.5757
 20
1.66547
 30
0.0
 40
0.0137795
 41
0.0137795
  0
VERTEX
  8
0
 10
21.8485
 20
2.05393
 30
0.0
 40
0.0137795
 41
0.0137795
  0
VERTEX
  8
0
 10
22.0754
 20
2.47646
 30
0.0
 40
0.0137795
 41
0.0137795
  0
VERTEX
  8
0
 10
22.2506
 20
2.92307
 30
0.0
 40
0.0137795
 41
0.0137795
  0
VERTEX
  8
0
 10
22.37
 20
3.38243
 30
0.0
 40
0.0137795
 41
0.0137795
  0
VERTEX
  8
0
 10
22.4342
 20
3.84956
 30
0.0
 40
0.0137795
 41
0.0137795
  0
VERTEX
  8
0
 10
22.4432
 20
4.31944
 30
0.0
 40
0.0137795
 41
0.0137795
  0
VERTEX
  8
0
 10
22.3974
 20
4.78717
 30
0.0
 40
0.0137795
 41
0.0137795
  0
VERTEX
  8
0
 10
22.2967
 20
5.24778
 30
0.0
 40
0.0137795
 41
0.0137795
  0
VERTEX
  8
0
 10
22.1414
 20
5.69629
 30
0.0
 40
0.0137795
 41
0.0137795
  0
VERTEX
  8
0
 10
21.9317
 20
6.12771
 30
0.0
 40
0.0137795
 41
0.0137795
  0
VERTEX
  8
0
 10
21.5694
 20
6.82443
 30
0.0
 40
0.0137795
 41
0.0137795
  0
VERTEX
  8
0
 10
21.2554
 20
7.53776
 30
0.0
 40
0.0137795
 41
0.0137795
  0
VERTEX
  8
0
 10
20.9897
 20
8.26525
 30
0.0
 40
0.0137795
 41
0.0137795
  0
VERTEX
  8
0
 10
20.7724
 20
9.00461
 30
0.0
 40
0.0137795
 41
0.0137795
  0
VERTEX
  8
0
 10
20.6033
 20
9.75347
 30
0.0
 40
0.0137795
 41
0.0137795
  0
VERTEX
  8
0
 10
20.4825
 20
10.5094
 30
0.0
 40
0.0137795
 41
0.0137795
  0
VERTEX
  8
0
 10
20.4101
 20
11.2702
 30
0.0
 40
0.0137795
 41
0.0137795
  0
VERTEX
  8
0
 10
20.386
 20
12.0333
 30
0.0
 40
0.0137795
 41
0.0137795
  0
VERTEX
  8
0
 10
20.4101
 20
12.7963
 30
0.0
 40
0.0137795
 41
0.0137795
  0
VERTEX
  8
0
 10
20.4825
 20
13.5571
 30
0.0
 40
0.0137795
 41
0.0137795
  0
VERTEX
  8
0
 10
20.6033
 20
14.3131
 30
0.0
 40
0.0137795
 41
0.0137795
  0
VERTEX
  8
0
 10
20.7724
 20
15.0619
 30
0.0
 40
0.0137795
 41
0.0137795
  0
VERTEX
  8
0
 10
20.9897
 20
15.8012
 30
0.0
 40
0.0137795
 41
0.0137795
  0
VERTEX
  8
0
 10
21.2554
 20
16.5287
 30
0.0
 40
0.0137795
 41
0.0137795
  0
VERTEX
  8
0
 10
21.5694
 20
17.2421
 30
0.0
 40
0.0137795
 41
0.0137795
  0
VERTEX
  8
0
 10
21.9317
 20
17.9387
 30
0.0
 40
0.0137795
 41
0.0137795
  0
VERTEX
  8
0
 10
22.1414
 20
18.3703
 30
0.0
 40
0.0137795
 41
0.0137795
  0
VERTEX
  8
0
 10
22.2967
 20
18.8187
 30
0.0
 40
0.0137795
 41
0.0137795
  0
VERTEX
  8
0
 10
22.3974
 20
19.2793
 30
0.0
 40
0.0137795
 41
0.0137795
  0
VERTEX
  8
0
 10
22.4432
 20
19.7471
 30
0.0
 40
0.0137795
 41
0.0137795
  0
VERTEX
  8
0
 10
22.4342
 20
20.2169
 30
0.0
 40
0.0137795
 41
0.0137795
  0
VERTEX
  8
0
 10
22.37
 20
20.684
 30
0.0
 40
0.0137795
 41
0.0137795
  0
VERTEX
  8
0
 10
22.2506
 20
21.1433
 30
0.0
 40
0.0137795
 41
0.0137795
  0
VERTEX
  8
0
 10
22.0754
 20
21.59
 30
0.0
 40
0.0137795
 41
0.0137795
  0
VERTEX
  8
0
 10
21.8485
 20
22.0125
 30
0.0
 40
0.0137795
 41
0.0137795
  0
VERTEX
  8
0
 10
21.5757
 20
22.4011
 30
0.0
 40
0.0137795
 41
0.0137795
  0
VERTEX
  8
0
 10
21.2613
 20
22.7524
 30
0.0
 40
0.0137795
 41
0.0137795
  0
VERTEX
  8
0
 10
20.909
 20
23.0635
 30
0.0
 40
0.0137795
 41
0.0137795
  0
VERTEX
  8
0
 10
20.5228
 20
23.3312
 30
0.0
 40
0.0137795
 41
0.0137795
  0
VERTEX
  8
0
 10
20.1065
 20
23.5526
 30
0.0
 40
0.0137795
 41
0.0137795
  0
VERTEX
  8
0
 10
19.6642
 20
23.7247
 30
0.0
 40
0.0137795
 41
0.0137795
  0
VERTEX
  8
0
 10
19.1997
 20
23.8443
 30
0.0
 40
0.0137795
 41
0.0137795
  0
VERTEX
  8
0
 10
18.3058
 20
23.9739
 30
0.0
 40
0.0137795
 41
0.0137795
  0
VERTEX
  8
0
 10
17.4058
 20
24.0171
 30
0.0
 40
0.0137795
 41
0.0137795
  0
VERTEX
  8
0
 10
16.5058
 20
23.9739
 30
0.0
 40
0.0137795
 41
0.0137795
  0
VERTEX
  8
0
 10
15.6121
 20
23.8443
 30
0.0
 40
0.0137795
 41
0.0137795
  0
VERTEX
  8
0
 10
14.5317
 20
23.6082
 30
0.0
 40
0.0137795
 41
0.0137795
  0
VERTEX
  8
0
 10
13.4671
 20
23.324
 30
0.0
 40
0.0137795
 41
0.0137795
  0
VERTEX
  8
0
 10
12.42
 20
22.9925
 30
0.0
 40
0.0137795
 41
0.0137795
  0
VERTEX
  8
0
 10
11.3917
 20
22.6146
 30
0.0
 40
0.0137795
 41
0.0137795
  0
VERTEX
  8
0
 10
10.3836
 20
22.1913
 30
0.0
 40
0.0137795
 41
0.0137795
  0
VERTEX
  8
0
 10
9.39725
 20
21.7232
 30
0.0
 40
0.0137795
 41
0.0137795
  0
VERTEX
  8
0
 10
8.43403
 20
21.2115
 30
0.0
 40
0.0137795
 41
0.0137795
  0
VERTEX
  8
0
 10
7.49539
 20
20.6572
 30
0.0
 40
0.0137795
 41
0.0137795
  0
VERTEX
  8
0
 10
6.58279
 20
20.0608
 30
0.0
 40
0.0137795
 41
0.0137795
  0
VERTEX
  8
0
 10
5.69769
 20
19.4235
 30
0.0
 40
0.0137795
 41
0.0137795
  0
VERTEX
  8
0
 10
4.84153
 20
18.7461
 30
0.0
 40
0.0137795
 41
0.0137795
  0
VERTEX
  8
0
 10
4.01574
 20
18.0294
 30
0.0
 40
0.0137795
 41
0.0137795
  0
VERTEX
  8
0
 10
3.22174
 20
17.2746
 30
0.0
 40
0.0137795
 41
0.0137795
  0
VERTEX
  8
0
 10
2.46099
 20
16.4824
 30
0.0
 40
0.0137795
 41
0.0137795
  0
VERTEX
  8
0
 10
1.73503
 20
15.6535
 30
0.0
 40
0.0137795
 41
0.0137795
  0
VERTEX
  8
0
 10
1.04519
 20
14.7892
 30
0.0
 40
0.0137795
 41
0.0137795
  0
VERTEX
  8
0
 10
0.827311
 20
14.4768
 30
0.0
 40
0.0137795
 41
0.0137795
  0
VERTEX
  8
0
 10
0.638456
 20
14.1515
 30
0.0
 40
0.0137795
 41
0.0137795
  0
VERTEX
  8
0
 10
0.478733
 20
13.8154
 30
0.0
 40
0.0137795
 41
0.0137795
  0
VERTEX
  8
0
 10
0.347982
 20
13.47
 30
0.0
 40
0.0137795
 41
0.0137795
  0
VERTEX
  8
0
 10
0.246311
 20
13.1172
 30
0.0
 40
0.0137795
 41
0.0137795
  0
VERTEX
  8
0
 10
0.173719
 20
12.759
 30
0.0
 40
0.0137795
 41
0.0137795
  0
VERTEX
  8
0
 10
0.1301
 20
12.397
 30
0.0
 40
0.0137795
 41
0.0137795
  0
VERTEX
  8
0
 10
0.115614
 20
12.0333
 30
0.0
 40
0.0137795
 41
0.0137795
  0
VERTEX
  8
0
 10
0.1301
 20
11.6695
 30
0.0
 40
0.0137795
 41
0.0137795
  0
VERTEX
  8
0
 10
0.173719
 20
11.3075
 30
0.0
 40
0.0137795
 41
0.0137795
  0
VERTEX
  8
0
 10
0.246311
 20
10.9493
 30
0.0
 40
0.0137795
 41
0.0137795
  0
VERTEX
  8
0
 10
0.347982
 20
10.5965
 30
0.0
 40
0.0137795
 41
0.0137795
  0
VERTEX
  8
0
 10
0.478733
 20
10.2511
 30
0.0
 40
0.0137795
 41
0.0137795
  0
VERTEX
  8
0
 10
0.638456
 20
9.91487
 30
0.0
 40
0.0137795
 41
0.0137795
  0
VERTEX
  8
0
 10
0.827311
 20
9.58968
 30
0.0
 40
0.0137795
 41
0.0137795
  0
VERTEX
  8
0
 10
1.04519
 20
9.27735
 30
0.0
 40
0.0137795
 41
0.0137795
  0
VERTEX
  8
0
 10
1.73503
 20
8.41297
 30
0.0
 40
0.0137795
 41
0.0137795
  0
VERTEX
  8
0
 10
2.46099
 20
7.58419
 30
0.0
 40
0.0137795
 41
0.0137795
  0
VERTEX
  8
0
 10
3.22174
 20
6.79189
 30
0.0
 40
0.0137795
 41
0.0137795
  0
VERTEX
  8
0
 10
4.01574
 20
6.037
 30
0.0
 40
0.0137795
 41
0.0137795
  0
VERTEX
  8
0
 10
4.84153
 20
5.32042
 30
0.0
 40
0.0137795
 41
0.0137795
  0
VERTEX
  8
0
 10
5.69769
 20
4.64301
 30
0.0
 40
0.0137795
 41
0.0137795
  0
VERTEX
  8
0
 10
6.58279
 20
4.00569
 30
0.0
 40
0.0137795
 41
0.0137795
  0
VERTEX
  8
0
 10
7.49539
 20
3.4094
 30
0.0
 40
0.0137795
 41
0.0137795
  0
VERTEX
  8
0
 10
8.43403
 20
2.85493
 30
0.0
 40
0.0137795
 41
0.0137795
  0
VERTEX
  8
0
 10
9.39725
 20
2.34332
 30
0.0
 40
0.0137795
 41
0.0137795
  0
VERTEX
  8
0
 10
10.3836
 20
1.87532
 30
0.0
 40
0.0137795
 41
0.0137795
  0
VERTEX
  8
0
 10
11.3917
 20
1.45193
 30
0.0
 40
0.0137795
 41
0.0137795
  0
VERTEX
  8
0
 10
12.42
 20
1.07406
 30
0.0
 40
0.0137795
 41
0.0137795
  0
VERTEX
  8
0
 10
13.4671
 20
0.742567
 30
0.0
 40
0.0137795
 41
0.0137795
  0
VERTEX
  8
0
 10
14.5317
 20
0.458333
 30
0.0
 40
0.0137795
 41
0.0137795
  0
VERTEX
  8
0
 10
15.6121
 20
0.222222
 30
0.0
 40
0.0137795
 41
0.0137795
  0
SEQEND
 8
0
  0
POLYLINE
  8
0
 62
     254
 66
     1
 10
0
 20
0
 30
0.0
 70
     1
 40
0
 41
0
  0
VERTEX
  8
0
 10
21.6153
 20
4.94661
 30
0.0
 40
0
 41
0
  0
VERTEX
  8
0
 10
21.6076
 20
4.98497
 30
0.0
 40
0
 41
0
  0
VERTEX
  8
0
 10
21.5865
 20
5.01622
 30
0.0
 40
0
 41
0
  0
VERTEX
  8
0
 10
21.5553
 20
5.03733
 30
0.0
 40
0
 41
0
  0
VERTEX
  8
0
 10
21.5169
 20
5.04503
 30
0.0
 40
0
 41
0
  0
VERTEX
  8
0
 10
21.4786
 20
5.03733
 30
0.0
 40
0
 41
0
  0
VERTEX
  8
0
 10
21.4474
 20
5.01622
 30
0.0
 40
0
 41
0
  0
VERTEX
  8
0
 10
21.4262
 20
4.98497
 30
0.0
 40
0
 41
0
  0
VERTEX
  8
0
 10
21.4185
 20
4.94661
 30
0.0
 40
0
 41
0
  0
VERTEX
  8
0
 10
21.4262
 20
4.90831
 30
0.0
 40
0
 41
0
  0
VERTEX
  8
0
 10
21.4474
 20
4.87706
 30
0.0
 40
0
 41
0
  0
VERTEX
  8
0
 10
21.4786
 20
4.85596
 30
0.0
 40
0
 41
0
  0
VERTEX
  8
0
 10
21.5169
 20
4.84819
 30
0.0
 40
0
 41
0
  0
VERTEX
  8
0
 10
21.5553
 20
4.85596
 30
0.0
 40
0
 41
0
  0
VERTEX
  8
0
 10
21.5865
 20
4.87706
 30
0.0
 40
0
 41
0
  0
VERTEX
  8
0
 10
21.6076
 20
4.90831
 30
0.0
 40
0
 41
0
  0
VERTEX
  8
0
 10
21.6153
 20
4.94661
 30
0.0
 40
0
 41
0
  0
SEQEND
 8
0
  0
POLYLINE
  8
0
 62
     0
 66
     1
 10
0
 20
0
 30
0.0
 70
     1
 40
0.992126
 41
0.992126
  0
VERTEX
  8
0
 10
21.6153
 20
4.94661
 30
0.0
 40
0.0137795
 41
0.0137795
  0
VERTEX
  8
0
 10
21.6076
 20
4.98497
 30
0.0
 40
0.0137795
 41
0.0137795
  0
VERTEX
  8
0
 10
21.5865
 20
5.01622
 30
0.0
 40
0.0137795
 41
0.0137795
  0
VERTEX
  8
0
 10
21.5553
 20
5.03733
 30
0.0
 40
0.0137795
 41
0.0137795
  0
VERTEX
  8
0
 10
21.5169
 20
5.04503
 30
0.0
 40
0.0137795
 41
0.0137795
  0
VERTEX
  8
0
 10
21.4786
 20
5.03733
 30
0.0
 40
0.0137795
 41
0.0137795
  0
VERTEX
  8
0
 10
21.4474
 20
5.01622
 30
0.0
 40
0.0137795
 41
0.0137795
  0
VERTEX
  8
0
 10
21.4262
 20
4.98497
 30
0.0
 40
0.0137795
 41
0.0137795
  0
VERTEX
  8
0
 10
21.4185
 20
4.94661
 30
0.0
 40
0.0137795
 41
0.0137795
  0
VERTEX
  8
0
 10
21.4262
 20
4.90831
 30
0.0
 40
0.0137795
 41
0.0137795
  0
VERTEX
  8
0
 10
21.4474
 20
4.87706
 30
0.0
 40
0.0137795
 41
0.0137795
  0
VERTEX
  8
0
 10
21.4786
 20
4.85596
 30
0.0
 40
0.0137795
 41
0.0137795
  0
VERTEX
  8
0
 10
21.5169
 20
4.84819
 30
0.0
 40
0.0137795
 41
0.0137795
  0
VERTEX
  8
0
 10
21.5553
 20
4.85596
 30
0.0
 40
0.0137795
 41
0.0137795
  0
VERTEX
  8
0
 10
21.5865
 20
4.87706
 30
0.0
 40
0.0137795
 41
0.0137795
  0
VERTEX
  8
0
 10
21.6076
 20
4.90831
 30
0.0
 40
0.0137795
 41
0.0137795
  0
VERTEX
  8
0
 10
21.6153
 20
4.94661
 30
0.0
 40
0.0137795
 41
0.0137795
  0
SEQEND
 8
0
  0
POLYLINE
  8
0
 62
     254
 66
     1
 10
0
 20
0
 30
0.0
 70
     1
 40
0
 41
0
  0
VERTEX
  8
0
 10
6.65474
 20
4.94661
 30
0.0
 40
0
 41
0
  0
VERTEX
  8
0
 10
6.64697
 20
4.98497
 30
0.0
 40
0
 41
0
  0
VERTEX
  8
0
 10
6.62586
 20
5.01622
 30
0.0
 40
0
 41
0
  0
VERTEX
  8
0
 10
6.59461
 20
5.03733
 30
0.0
 40
0
 41
0
  0
VERTEX
  8
0
 10
6.55632
 20
5.04503
 30
0.0
 40
0
 41
0
  0
VERTEX
  8
0
 10
6.51796
 20
5.03733
 30
0.0
 40
0
 41
0
  0
VERTEX
  8
0
 10
6.48671
 20
5.01622
 30
0.0
 40
0
 41
0
  0
VERTEX
  8
0
 10
6.4656
 20
4.98497
 30
0.0
 40
0
 41
0
  0
VERTEX
  8
0
 10
6.4579
 20
4.94661
 30
0.0
 40
0
 41
0
  0
VERTEX
  8
0
 10
6.4656
 20
4.90831
 30
0.0
 40
0
 41
0
  0
VERTEX
  8
0
 10
6.48671
 20
4.87706
 30
0.0
 40
0
 41
0
  0
VERTEX
  8
0
 10
6.51796
 20
4.85596
 30
0.0
 40
0
 41
0
  0
VERTEX
  8
0
 10
6.55632
 20
4.84819
 30
0.0
 40
0
 41
0
  0
VERTEX
  8
0
 10
6.59461
 20
4.85596
 30
0.0
 40
0
 41
0
  0
VERTEX
  8
0
 10
6.62586
 20
4.87706
 30
0.0
 40
0
 41
0
  0
VERTEX
  8
0
 10
6.64697
 20
4.90831
 30
0.0
 40
0
 41
0
  0
VERTEX
  8
0
 10
6.65474
 20
4.94661
 30
0.0
 40
0
 41
0
  0
SEQEND
 8
0
  0
POLYLINE
  8
0
 62
     0
 66
     1
 10
0
 20
0
 30
0.0
 70
     1
 40
0.992126
 41
0.992126
  0
VERTEX
  8
0
 10
6.65474
 20
4.94661
 30
0.0
 40
0.0137795
 41
0.0137795
  0
VERTEX
  8
0
 10
6.64697
 20
4.98497
 30
0.0
 40
0.0137795
 41
0.0137795
  0
VERTEX
  8
0
 10
6.62586
 20
5.01622
 30
0.0
 40
0.0137795
 41
0.0137795
  0
VERTEX
  8
0
 10
6.59461
 20
5.03733
 30
0.0
 40
0.0137795
 41
0.0137795
  0
VERTEX
  8
0
 10
6.55632
 20
5.04503
 30
0.0
 40
0.0137795
 41
0.0137795
  0
VERTEX
  8
0
 10
6.51796
 20
5.03733
 30
0.0
 40
0.0137795
 41
0.0137795
  0
VERTEX
  8
0
 10
6.48671
 20
5.01622
 30
0.0
 40
0.0137795
 41
0.0137795
  0
VERTEX
  8
0
 10
6.4656
 20
4.98497
 30
0.0
 40
0.0137795
 41
0.0137795
  0
VERTEX
  8
0
 10
6.4579
 20
4.94661
 30
0.0
 40
0.0137795
 41
0.0137795
  0
VERTEX
  8
0
 10
6.4656
 20
4.90831
 30
0.0
 40
0.0137795
 41
0.0137795
  0
VERTEX
  8
0
 10
6.48671
 20
4.87706
 30
0.0
 40
0.0137795
 41
0.0137795
  0
VERTEX
  8
0
 10
6.51796
 20
4.85596
 30
0.0
 40
0.0137795
 41
0.0137795
  0
VERTEX
  8
0
 10
6.55632
 20
4.84819
 30
0.0
 40
0.0137795
 41
0.0137795
  0
VERTEX
  8
0
 10
6.59461
 20
4.85596
 30
0.0
 40
0.0137795
 41
0.0137795
  0
VERTEX
  8
0
 10
6.62586
 20
4.87706
 30
0.0
 40
0.0137795
 41
0.0137795
  0
VERTEX
  8
0
 10
6.64697
 20
4.90831
 30
0.0
 40
0.0137795
 41
0.0137795
  0
VERTEX
  8
0
 10
6.65474
 20
4.94661
 30
0.0
 40
0.0137795
 41
0.0137795
  0
SEQEND
 8
0
  0
POLYLINE
  8
0
 62
     254
 66
     1
 10
0
 20
0
 30
0.0
 70
     1
 40
0
 41
0
  0
VERTEX
  8
0
 10
21.6153
 20
19.1199
 30
0.0
 40
0
 41
0
  0
VERTEX
  8
0
 10
21.6076
 20
19.1582
 30
0.0
 40
0
 41
0
  0
VERTEX
  8
0
 10
21.5865
 20
19.1894
 30
0.0
 40
0
 41
0
  0
VERTEX
  8
0
 10
21.5553
 20
19.2106
 30
0.0
 40
0
 41
0
  0
VERTEX
  8
0
 10
21.5169
 20
19.2182
 30
0.0
 40
0
 41
0
  0
VERTEX
  8
0
 10
21.4786
 20
19.2106
 30
0.0
 40
0
 41
0
  0
VERTEX
  8
0
 10
21.4474
 20
19.1894
 30
0.0
 40
0
 41
0
  0
VERTEX
  8
0
 10
21.4262
 20
19.1582
 30
0.0
 40
0
 41
0
  0
VERTEX
  8
0
 10
21.4185
 20
19.1199
 30
0.0
 40
0
 41
0
  0
VERTEX
  8
0
 10
21.4262
 20
19.0815
 30
0.0
 40
0
 41
0
  0
VERTEX
  8
0
 10
21.4474
 20
19.0503
 30
0.0
 40
0
 41
0
  0
VERTEX
  8
0
 10
21.4786
 20
19.0292
 30
0.0
 40
0
 41
0
  0
VERTEX
  8
0
 10
21.5169
 20
19.0214
 30
0.0
 40
0
 41
0
  0
VERTEX
  8
0
 10
21.5553
 20
19.0292
 30
0.0
 40
0
 41
0
  0
VERTEX
  8
0
 10
21.5865
 20
19.0503
 30
0.0
 40
0
 41
0
  0
VERTEX
  8
0
 10
21.6076
 20
19.0815
 30
0.0
 40
0
 41
0
  0
VERTEX
  8
0
 10
21.6153
 20
19.1199
 30
0.0
 40
0
 41
0
  0
SEQEND
 8
0
  0
POLYLINE
  8
0
 62
     0
 66
     1
 10
0
 20
0
 30
0.0
 70
     1
 40
0.992126
 41
0.992126
  0
VERTEX
  8
0
 10
21.6153
 20
19.1199
 30
0.0
 40
0.0137795
 41
0.0137795
  0
VERTEX
  8
0
 10
21.6076
 20
19.1582
 30
0.0
 40
0.0137795
 41
0.0137795
  0
VERTEX
  8
0
 10
21.5865
 20
19.1894
 30
0.0
 40
0.0137795
 41
0.0137795
  0
VERTEX
  8
0
 10
21.5553
 20
19.2106
 30
0.0
 40
0.0137795
 41
0.0137795
  0
VERTEX
  8
0
 10
21.5169
 20
19.2182
 30
0.0
 40
0.0137795
 41
0.0137795
  0
VERTEX
  8
0
 10
21.4786
 20
19.2106
 30
0.0
 40
0.0137795
 41
0.0137795
  0
VERTEX
  8
0
 10
21.4474
 20
19.1894
 30
0.0
 40
0.0137795
 41
0.0137795
  0
VERTEX
  8
0
 10
21.4262
 20
19.1582
 30
0.0
 40
0.0137795
 41
0.0137795
  0
VERTEX
  8
0
 10
21.4185
 20
19.1199
 30
0.0
 40
0.0137795
 41
0.0137795
  0
VERTEX
  8
0
 10
21.4262
 20
19.0815
 30
0.0
 40
0.0137795
 41
0.0137795
  0
VERTEX
  8
0
 10
21.4474
 20
19.0503
 30
0.0
 40
0.0137795
 41
0.0137795
  0
VERTEX
  8
0
 10
21.4786
 20
19.0292
 30
0.0
 40
0.0137795
 41
0.0137795
  0
VERTEX
  8
0
 10
21.5169
 20
19.0214
 30
0.0
 40
0.0137795
 41
0.0137795
  0
VERTEX
  8
0
 10
21.5553
 20
19.0292
 30
0.0
 40
0.0137795
 41
0.0137795
  0
VERTEX
  8
0
 10
21.5865
 20
19.0503
 30
0.0
 40
0.0137795
 41
0.0137795
  0
VERTEX
  8
0
 10
21.6076
 20
19.0815
 30
0.0
 40
0.0137795
 41
0.0137795
  0
VERTEX
  8
0
 10
21.6153
 20
19.1199
 30
0.0
 40
0.0137795
 41
0.0137795
  0
SEQEND
 8
0
  0
POLYLINE
  8
0
 62
     254
 66
     1
 10
0
 20
0
 30
0.0
 70
     1
 40
0
 41
0
  0
VERTEX
  8
0
 10
6.65474
 20
19.1199
 30
0.0
 40
0
 41
0
  0
VERTEX
  8
0
 10
6.64697
 20
19.1582
 30
0.0
 40
0
 41
0
  0
VERTEX
  8
0
 10
6.62586
 20
19.1894
 30
0.0
 40
0
 41
0
  0
VERTEX
  8
0
 10
6.59461
 20
19.2106
 30
0.0
 40
0
 41
0
  0
VERTEX
  8
0
 10
6.55632
 20
19.2182
 30
0.0
 40
0
 41
0
  0
VERTEX
  8
0
 10
6.51796
 20
19.2106
 30
0.0
 40
0
 41
0
  0
VERTEX
  8
0
 10
6.48671
 20
19.1894
 30
0.0
 40
0
 41
0
  0
VERTEX
  8
0
 10
6.4656
 20
19.1582
 30
0.0
 40
0
 41
0
  0
VERTEX
  8
0
 10
6.4579
 20
19.1199
 30
0.0
 40
0
 41
0
  0
VERTEX
  8
0
 10
6.4656
 20
19.0815
 30
0.0
 40
0
 41
0
  0
VERTEX
  8
0
 10
6.48671
 20
19.0503
 30
0.0
 40
0
 41
0
  0
VERTEX
  8
0
 10
6.51796
 20
19.0292
 30
0.0
 40
0
 41
0
  0
VERTEX
  8
0
 10
6.55632
 20
19.0214
 30
0.0
 40
0
 41
0
  0
VERTEX
  8
0
 10
6.59461
 20
19.0292
 30
0.0
 40
0
 41
0
  0
VERTEX
  8
0
 10
6.62586
 20
19.0503
 30
0.0
 40
0
 41
0
  0
VERTEX
  8
0
 10
6.64697
 20
19.0815
 30
0.0
 40
0
 41
0
  0
VERTEX
  8
0
 10
6.65474
 20
19.1199
 30
0.0
 40
0
 41
0
  0
SEQEND
 8
0
  0
POLYLINE
  8
0
 62
     0
 66
     1
 10
0
 20
0
 30
0.0
 70
     1
 40
0.992126
 41
0.992126
  0
VERTEX
  8
0
 10
6.65474
 20
19.1199
 30
0.0
 40
0.0137795
 41
0.0137795
  0
VERTEX
  8
0
 10
6.64697
 20
19.1582
 30
0.0
 40
0.0137795
 41
0.0137795
  0
VERTEX
  8
0
 10
6.62586
 20
19.1894
 30
0.0
 40
0.0137795
 41
0.0137795
  0
VERTEX
  8
0
 10
6.59461
 20
19.2106
 30
0.0
 40
0.0137795
 41
0.0137795
  0
VERTEX
  8
0
 10
6.55632
 20
19.2182
 30
0.0
 40
0.0137795
 41
0.0137795
  0
VERTEX
  8
0
 10
6.51796
 20
19.2106
 30
0.0
 40
0.0137795
 41
0.0137795
  0
VERTEX
  8
0
 10
6.48671
 20
19.1894
 30
0.0
 40
0.0137795
 41
0.0137795
  0
VERTEX
  8
0
 10
6.4656
 20
19.1582
 30
0.0
 40
0.0137795
 41
0.0137795
  0
VERTEX
  8
0
 10
6.4579
 20
19.1199
 30
0.0
 40
0.0137795
 41
0.0137795
  0
VERTEX
  8
0
 10
6.4656
 20
19.0815
 30
0.0
 40
0.0137795
 41
0.0137795
  0
VERTEX
  8
0
 10
6.48671
 20
19.0503
 30
0.0
 40
0.0137795
 41
0.0137795
  0
VERTEX
  8
0
 10
6.51796
 20
19.0292
 30
0.0
 40
0.0137795
 41
0.0137795
  0
VERTEX
  8
0
 10
6.55632
 20
19.0214
 30
0.0
 40
0.0137795
 41
0.0137795
  0
VERTEX
  8
0
 10
6.59461
 20
19.0292
 30
0.0
 40
0.0137795
 41
0.0137795
  0
VERTEX
  8
0
 10
6.62586
 20
19.0503
 30
0.0
 40
0.0137795
 41
0.0137795
  0
VERTEX
  8
0
 10
6.64697
 20
19.0815
 30
0.0
 40
0.0137795
 41
0.0137795
  0
VERTEX
  8
0
 10
6.65474
 20
19.1199
 30
0.0
 40
0.0137795
 41
0.0137795
  0
SEQEND
 8
0
  0
ENDSEC
  0
EOF
